<?xml version="1.0" encoding="UTF-8"?><svg id="uuid-d192363a-fe16-4db1-8e04-217ecdf941c2" xmlns="http://www.w3.org/2000/svg" viewBox="0 0 2372.52 809.97"><defs><style>.uuid-149460ca-369a-4778-9f0e-d46e61da76c1{fill:#f5f3eb;}</style></defs><g id="uuid-8779c8ee-73f1-44d3-a26b-36696888556a"><rect class="uuid-149460ca-369a-4778-9f0e-d46e61da76c1" y="803.34" width="2372.52" height="6.63"/><rect class="uuid-149460ca-369a-4778-9f0e-d46e61da76c1" y="760.82" width="2372.52" height="6.63"/><rect class="uuid-149460ca-369a-4778-9f0e-d46e61da76c1" y="716.11" width="2372.52" height="6.63"/><rect class="uuid-149460ca-369a-4778-9f0e-d46e61da76c1" y="670.49" width="2372.52" height="6.63"/><path class="uuid-149460ca-369a-4778-9f0e-d46e61da76c1" d="M2372.52,137.76c-118.73,0-179.09-3.85-237.46-7.57-58.27-3.71-118.52-7.55-237.04-7.55s-178.77,3.84-237.04,7.55c-58.37,3.72-118.73,7.57-237.46,7.57s-179.09-3.85-237.46-7.57c-58.27-3.71-118.52-7.55-237.04-7.55s-178.77,3.84-237.04,7.55c-58.37,3.72-118.73,7.57-237.46,7.57s-179.09-3.85-237.46-7.57c-58.27-3.71-118.52-7.55-237.04-7.55v-6.63c118.73,0,179.09,3.85,237.46,7.57,58.27,3.71,118.52,7.55,237.04,7.55s178.77-3.84,237.04-7.55c58.37-3.72,118.73-7.57,237.46-7.57s179.09,3.85,237.46,7.57c58.27,3.71,118.52,7.55,237.04,7.55s178.77-3.84,237.04-7.55c58.37-3.72,118.73-7.57,237.46-7.57s179.09,3.85,237.46,7.57c58.27,3.71,118.52,7.55,237.04,7.55v6.63Z"/><path class="uuid-149460ca-369a-4778-9f0e-d46e61da76c1" d="M2372.52,30.05V0c-125.23,0-188.52,18.27-249.72,35.95-57.99,16.74-112.77,32.56-224.8,32.56-112.03,0-166.81-15.82-224.8-32.56C1611.99,18.27,1548.71,0,1423.48,0c-125.23,0-188.51,18.27-249.71,35.95-57.99,16.74-112.76,32.56-224.78,32.56-112.02,0-166.79-15.82-224.78-32.56C663,18.27,599.72,0,474.49,0c-125.23,0-188.51,18.27-249.71,35.95C166.79,52.69,112.02,68.51,0,68.51v30.05c125.23,0,188.51-18.27,249.71-35.95,57.99-16.74,112.76-32.56,224.78-32.56,112.02,0,166.79,15.82,224.78,32.56,61.2,17.67,124.48,35.95,249.71,35.95,125.23,0,188.51-18.27,249.71-35.95,57.99-16.74,112.76-32.56,224.79-32.56,112.03,0,166.81,15.82,224.8,32.56,61.2,17.67,124.49,35.95,249.72,35.95,125.23,0,188.52-18.27,249.72-35.95,57.99-16.74,112.77-32.56,224.8-32.56Z"/><path class="uuid-149460ca-369a-4778-9f0e-d46e61da76c1" d="M2372.52,223.37v-30.05c-123.29,0-185.83,12.36-246.31,24.3-58.75,11.61-114.24,22.57-228.21,22.57-113.97,0-169.46-10.96-228.21-22.57-60.48-11.95-123.02-24.3-246.31-24.3-123.29,0-185.83,12.36-246.31,24.3-58.75,11.61-114.23,22.57-228.19,22.57-113.96,0-169.45-10.96-228.19-22.57-60.48-11.95-123.01-24.3-246.3-24.3-123.29,0-185.82,12.36-246.3,24.3C169.45,229.23,113.96,240.19,0,240.19v30.05c123.29,0,185.82-12.36,246.3-24.3,58.75-11.61,114.23-22.57,228.19-22.57,113.96,0,169.45,10.96,228.19,22.57,60.48,11.95,123.01,24.3,246.3,24.3,123.28,0,185.82-12.36,246.3-24.3,58.75-11.61,114.23-22.57,228.2-22.57,113.97,0,169.46,10.96,228.21,22.57,60.48,11.95,123.02,24.3,246.31,24.3,123.29,0,185.83-12.36,246.31-24.3,58.75-11.61,114.24-22.57,228.21-22.57Z"/><path class="uuid-149460ca-369a-4778-9f0e-d46e61da76c1" d="M2372.52,332.41c-118.7,0-179.04-2.63-237.4-5.18-58.28-2.54-118.55-5.17-237.11-5.17s-178.82,2.63-237.11,5.17c-58.36,2.54-118.7,5.18-237.4,5.18s-179.04-2.63-237.4-5.18c-58.28-2.54-118.55-5.17-237.11-5.17s-178.82,2.63-237.11,5.17c-58.36,2.54-118.7,5.18-237.4,5.18s-179.04-2.63-237.4-5.18c-58.28-2.54-118.55-5.17-237.11-5.17v-6.63c118.7,0,179.04,2.63,237.4,5.18,58.28,2.54,118.55,5.17,237.11,5.17s178.82-2.63,237.11-5.17c58.36-2.54,118.7-5.18,237.4-5.18s179.04,2.63,237.4,5.18c58.28,2.54,118.55,5.17,237.11,5.17s178.82-2.63,237.11-5.17c58.36-2.54,118.7-5.18,237.4-5.18s179.04,2.63,237.4,5.18c58.28,2.54,118.55,5.17,237.11,5.17v6.63Z"/><path class="uuid-149460ca-369a-4778-9f0e-d46e61da76c1" d="M2372.52,625.24c-118.65,0-178.96-.81-237.3-1.59-58.31-.78-118.6-1.59-237.21-1.59s-178.9.81-237.21,1.59c-58.33.78-118.65,1.59-237.3,1.59s-178.97-.81-237.3-1.59c-58.31-.78-118.6-1.59-237.21-1.59s-178.9.81-237.21,1.59c-58.33.78-118.65,1.59-237.3,1.59s-178.97-.81-237.3-1.59c-58.31-.78-118.6-1.59-237.21-1.59v-6.63c118.65,0,178.97.81,237.3,1.59,58.31.78,118.6,1.59,237.21,1.59s178.9-.81,237.21-1.59c58.33-.78,118.65-1.59,237.3-1.59s178.96.81,237.3,1.59c58.31.78,118.6,1.59,237.21,1.59s178.9-.81,237.21-1.59c58.33-.78,118.65-1.59,237.3-1.59s178.96.81,237.3,1.59c58.31.78,118.6,1.59,237.21,1.59v6.63Z"/><path class="uuid-149460ca-369a-4778-9f0e-d46e61da76c1" d="M0,546.68v37.14c120.05,0,181.07-4.59,240.09-9.02,60.28-4.53,117.22-8.81,234.43-8.81,117.21,0,174.15,4.28,234.43,8.81,59.01,4.43,120.04,9.02,240.09,9.02,120.04,0,181.07-4.59,240.08-9.02,60.28-4.53,117.22-8.81,234.42-8.81,117.2,0,174.14,4.28,234.42,8.81,59.01,4.43,120.03,9.02,240.07,9.02,120.04,0,181.06-4.59,240.07-9.02,60.28-4.53,117.21-8.81,234.42-8.81v-37.14c-120.04,0-181.06,4.59-240.07,9.02-60.28,4.53-117.21,8.81-234.42,8.81-117.2,0-174.14-4.28-234.42-8.81-59.01-4.43-120.03-9.02-240.07-9.02-120.04,0-181.07,4.59-240.08,9.02-60.28,4.53-117.22,8.81-234.42,8.81-117.21,0-174.15-4.28-234.43-8.81-59.01-4.43-120.04-9.02-240.09-9.02-120.05,0-181.07,4.59-240.09,9.02-60.28,4.53-117.22,8.81-234.43,8.81Z"/><path class="uuid-149460ca-369a-4778-9f0e-d46e61da76c1" d="M2372.52,482.84c-118.67,0-179-1.62-237.34-3.18-58.3-1.56-118.58-3.18-237.16-3.18s-178.86,1.62-237.16,3.18c-58.34,1.57-118.67,3.18-237.34,3.18s-179-1.62-237.34-3.18c-58.3-1.56-118.58-3.18-237.16-3.18s-178.86,1.62-237.16,3.18c-58.34,1.57-118.67,3.18-237.34,3.18s-179-1.62-237.34-3.18c-58.3-1.56-118.58-3.18-237.16-3.18v-6.63c118.67,0,179,1.62,237.34,3.18,58.3,1.56,118.58,3.18,237.16,3.18s178.86-1.62,237.16-3.18c58.34-1.57,118.67-3.18,237.34-3.18s179,1.62,237.34,3.18c58.3,1.56,118.58,3.18,237.16,3.18s178.86-1.62,237.16-3.18c58.34-1.57,118.67-3.18,237.34-3.18s179,1.62,237.34,3.18c58.3,1.56,118.58,3.18,237.16,3.18v6.63Z"/><path class="uuid-149460ca-369a-4778-9f0e-d46e61da76c1" d="M2372.52,407.23v-30.05c-121.55,0-183.31,7.51-243.04,14.77-59.54,7.24-115.78,14.08-231.48,14.08-115.71,0-171.95-6.84-231.48-14.08-59.73-7.26-121.48-14.77-243.04-14.77-121.54,0-183.3,7.51-243.02,14.77-59.53,7.24-115.77,14.08-231.47,14.08-115.7,0-171.93-6.84-231.47-14.08-59.72-7.26-121.47-14.77-243.02-14.77-121.54,0-183.3,7.51-243.02,14.77C171.94,399.19,115.7,406.02,0,406.02v30.05c121.54,0,183.3-7.51,243.02-14.77,59.53-7.24,115.77-14.08,231.47-14.08,115.7,0,171.93,6.84,231.47,14.08,59.72,7.26,121.47,14.77,243.02,14.77,121.55,0,183.3-7.51,243.03-14.77,59.53-7.24,115.77-14.08,231.47-14.08,115.71,0,171.95,6.84,231.48,14.08,59.73,7.26,121.48,14.77,243.04,14.77,121.55,0,183.31-7.51,243.04-14.77,59.54-7.24,115.78-14.08,231.49-14.08Z"/></g></svg>