<?xml version="1.0" encoding="UTF-8"?><svg id="uuid-8a15f37a-452b-4093-90c2-138ad9cb3b1d" xmlns="http://www.w3.org/2000/svg" xmlns:xlink="http://www.w3.org/1999/xlink" viewBox="0 0 2494.65 1022.76"><defs><style>.uuid-c88b7079-4dc1-4cc9-a9b2-c528858a33f0{clip-path:url(#uuid-34711b5e-c3ed-4461-a872-7a2c7d675f62);}.uuid-00ff1cea-6602-4c71-8e85-0dbed21fbc98{fill:none;}.uuid-ebac80dc-4855-4656-b3d6-c6c67c2759a3{fill:#f5f3eb;}</style><clipPath id="uuid-34711b5e-c3ed-4461-a872-7a2c7d675f62"><rect class="uuid-00ff1cea-6602-4c71-8e85-0dbed21fbc98" width="2494.65" height="1022.76"/></clipPath></defs><g id="uuid-4eb2b569-eac0-493c-a3b4-9664727c1b07"><g class="uuid-c88b7079-4dc1-4cc9-a9b2-c528858a33f0"><g id="uuid-36b30d97-5a6c-4197-9469-79c088afb8c0"><path class="uuid-ebac80dc-4855-4656-b3d6-c6c67c2759a3" d="M-394.79-.66v-52.92h-20.26v190.24c0,39.31,23.89,58.97,58.67,58.97.33,0,.65-.01.98-.02v-18.77c-.33,0-.65.03-.98.03-23.29,0-38.41-13-38.41-40.22V17.79H100.32V-.66h-495.11Z"/><path class="uuid-ebac80dc-4855-4656-b3d6-c6c67c2759a3" d="M158.74-230.21V-40.97c0,18.77-5.38,33.4-15.98,43.5-9.93,9.46-24.34,14.46-41.67,14.47V.25c25.03,0,39.39-15.03,39.39-41.22v-119.87h-495.11v-16.45H140.47v-52.92h18.26M159.74-231.21h-20.26v52.92h-495.11v18.45H139.47V-40.97C139.47-13.75,124.35-.75,101.07-.75c-.33,0-.65-.03-.98-.03v18.77c.33,0,.65.02.98.02,34.78,0,58.67-19.66,58.67-58.97v-190.24h0Z"/></g><g id="uuid-43321096-31f1-420b-a8e3-96b0bf0fb8a3"><path class="uuid-ebac80dc-4855-4656-b3d6-c6c67c2759a3" d="M20.52-.66v-52.92H.26v190.24c0,39.31,23.89,58.97,58.67,58.97.33,0,.65-.01.98-.02v-18.77c-.33,0-.65.03-.98.03-23.29,0-38.41-13-38.41-40.22V17.79h495.11V-.66H20.52Z"/><path class="uuid-ebac80dc-4855-4656-b3d6-c6c67c2759a3" d="M574.05-230.21V-40.97c0,18.77-5.38,33.4-15.98,43.5-9.93,9.46-24.34,14.46-41.67,14.47V.25c25.03,0,39.39-15.03,39.39-41.22v-119.87H60.68v-16.45h495.11v-52.92h18.26M575.05-231.21h-20.26v52.92H59.68v18.45h495.11V-40.97c0,27.22-15.12,40.22-38.41,40.22-.33,0-.65-.03-.98-.03v18.77c.33,0,.65.02.98.02,34.78,0,58.67-19.66,58.67-58.97v-190.24h0Z"/></g><g id="uuid-fe86ff75-94b0-485f-a987-ffd6937dc421"><path class="uuid-ebac80dc-4855-4656-b3d6-c6c67c2759a3" d="M435.84-.66v-52.92h-20.26v190.24c0,39.31,23.89,58.97,58.67,58.97.33,0,.65-.01.98-.02v-18.77c-.33,0-.65.03-.98.03-23.29,0-38.41-13-38.41-40.22V17.79h495.11V-.66h-495.11Z"/><path class="uuid-ebac80dc-4855-4656-b3d6-c6c67c2759a3" d="M989.36-230.21V-40.97c0,18.77-5.38,33.4-15.98,43.5-9.93,9.46-24.34,14.46-41.67,14.47V.25c25.03,0,39.39-15.03,39.39-41.22v-119.87h-495.11v-16.45h495.11v-52.92h18.26M990.36-231.21h-20.26v52.92h-495.11v18.45h495.11V-40.97c0,27.22-15.12,40.22-38.41,40.22-.33,0-.65-.03-.98-.03v18.77c.33,0,.65.02.98.02,34.78,0,58.67-19.66,58.67-58.97v-190.24h0Z"/></g><g id="uuid-c5f3027c-8f77-4ef1-a6a5-22cc86dbab32"><path class="uuid-ebac80dc-4855-4656-b3d6-c6c67c2759a3" d="M851.15-.66v-52.92h-20.26v190.24c0,39.31,23.89,58.97,58.67,58.97.33,0,.65-.01.98-.02v-18.77c-.33,0-.65.03-.98.03-23.29,0-38.41-13-38.41-40.22V17.79h495.11V-.66h-495.11Z"/><path class="uuid-ebac80dc-4855-4656-b3d6-c6c67c2759a3" d="M1404.67-230.21V-40.97c0,18.77-5.38,33.4-15.98,43.5-9.93,9.46-24.34,14.46-41.67,14.47V.25c25.03,0,39.39-15.03,39.39-41.22v-119.87h-495.11v-16.45h495.11v-52.92h18.26M1405.67-231.21h-20.26v52.92h-495.11v18.45h495.11V-40.97c0,27.22-15.12,40.22-38.41,40.22-.33,0-.65-.03-.98-.03v18.77c.33,0,.65.02.98.02,34.78,0,58.67-19.66,58.67-58.97v-190.24h0Z"/></g><g id="uuid-edef44e7-9734-452e-b287-00bc1bd993ea"><path class="uuid-ebac80dc-4855-4656-b3d6-c6c67c2759a3" d="M1266.46-.66v-52.92h-20.26v190.24c0,39.31,23.89,58.97,58.67,58.97.33,0,.65-.01.98-.02v-18.77c-.33,0-.65.03-.98.03-23.29,0-38.41-13-38.41-40.22V17.79h495.11V-.66h-495.11Z"/><path class="uuid-ebac80dc-4855-4656-b3d6-c6c67c2759a3" d="M1819.99-230.21V-40.97c0,18.77-5.38,33.4-15.98,43.5-9.93,9.46-24.34,14.46-41.67,14.47V.25c25.03,0,39.39-15.03,39.39-41.22v-119.87h-495.11v-16.45h495.11v-52.92h18.26M1820.99-231.21h-20.26v52.92h-495.11v18.45h495.11V-40.97c0,27.22-15.12,40.22-38.41,40.22-.33,0-.65-.03-.98-.03v18.77c.33,0,.65.02.98.02,34.78,0,58.67-19.66,58.67-58.97v-190.24h0Z"/></g><g id="uuid-f86db0b1-6372-48f0-86d0-ce3344654b1d"><path class="uuid-ebac80dc-4855-4656-b3d6-c6c67c2759a3" d="M1681.77-.66v-52.92h-20.26v190.24c0,39.31,23.89,58.97,58.67,58.97.33,0,.65-.01.98-.02v-18.77c-.33,0-.65.03-.98.03-23.29,0-38.41-13-38.41-40.22V17.79h495.11V-.66h-495.11Z"/><path class="uuid-ebac80dc-4855-4656-b3d6-c6c67c2759a3" d="M2235.3-230.21V-40.97c0,18.77-5.38,33.4-15.98,43.5-9.93,9.46-24.34,14.46-41.67,14.47V.25c25.03,0,39.39-15.03,39.39-41.22v-119.87h-495.11v-16.45h495.11v-52.92h18.26M2236.3-231.21h-20.26v52.92h-495.11v18.45h495.11V-40.97c0,27.22-15.12,40.22-38.41,40.22-.33,0-.65-.03-.98-.03v18.77c.33,0,.65.02.98.02,34.78,0,58.67-19.66,58.67-58.97v-190.24h0Z"/></g><g id="uuid-10c25186-ff3c-4413-81b6-78407716911c"><path class="uuid-ebac80dc-4855-4656-b3d6-c6c67c2759a3" d="M2097.09-.66v-52.92h-20.26v190.24c0,39.31,23.89,58.97,58.67,58.97.33,0,.65-.01.98-.02v-18.77c-.33,0-.65.03-.98.03-23.29,0-38.41-13-38.41-40.22V17.79h495.11V-.66h-495.11Z"/><path class="uuid-ebac80dc-4855-4656-b3d6-c6c67c2759a3" d="M2650.61-230.21V-40.97c0,18.77-5.38,33.4-15.98,43.5-9.93,9.46-24.34,14.46-41.67,14.47V.25c25.03,0,39.39-15.03,39.39-41.22v-119.87h-495.11v-16.45h495.11v-52.92h18.26M2651.61-231.21h-20.26v52.92h-495.11v18.45h495.11V-40.97c0,27.22-15.12,40.22-38.41,40.22-.33,0-.65-.03-.98-.03v18.77c.33,0,.65.02.98.02,34.78,0,58.67-19.66,58.67-58.97v-190.24h0Z"/></g><g id="uuid-9fbcc8c0-4595-4f79-b988-edf7252b3bfd"><path class="uuid-ebac80dc-4855-4656-b3d6-c6c67c2759a3" d="M-394.79,332.98v-52.92h-20.26v190.24c0,39.31,23.89,58.97,58.67,58.97.33,0,.65-.01.98-.02v-18.77c-.33,0-.65.03-.98.03-23.29,0-38.41-13-38.41-40.22v-118.87H100.32v-18.45h-495.11Z"/><path class="uuid-ebac80dc-4855-4656-b3d6-c6c67c2759a3" d="M-394.79,688.4v-52.92h-20.26v190.24c0,39.31,23.89,58.97,58.67,58.97.33,0,.65-.01.98-.02v-18.77c-.33,0-.65.03-.98.03-23.29,0-38.41-13-38.41-40.22v-118.87H100.32v-18.45h-495.11Z"/><path class="uuid-ebac80dc-4855-4656-b3d6-c6c67c2759a3" d="M158.74,121.87v189.24c0,18.77-5.38,33.4-15.98,43.5-9.93,9.46-24.34,14.46-41.67,14.47v-16.75c25.03,0,39.39-15.03,39.39-41.22v-119.87h-495.11v-16.45H140.47v-52.92h18.26M159.74,120.87h-20.26v52.92h-495.11v18.45H139.47v118.87c0,27.22-15.12,40.22-38.41,40.22-.33,0-.65-.03-.98-.03v18.77c.33,0,.65.02.98.02,34.78,0,58.67-19.66,58.67-58.97V120.87h0Z"/><path class="uuid-ebac80dc-4855-4656-b3d6-c6c67c2759a3" d="M158.74,458.85v189.24c0,18.77-5.38,33.4-15.98,43.5-9.93,9.46-24.34,14.46-41.67,14.47v-16.75c25.03,0,39.39-15.03,39.39-41.22v-119.87h-495.11v-16.45H140.47v-52.92h18.26M159.74,457.85h-20.26v52.92h-495.11v18.45H139.47v118.87c0,27.22-15.12,40.22-38.41,40.22-.33,0-.65-.03-.98-.03v18.77c.33,0,.65.02.98.02,34.78,0,58.67-19.66,58.67-58.97v-190.24h0Z"/></g><g id="uuid-7271af6c-9e12-46b1-b234-cd6e1d66e998"><path class="uuid-ebac80dc-4855-4656-b3d6-c6c67c2759a3" d="M20.52,332.98v-52.92H.26v190.24c0,39.31,23.89,58.97,58.67,58.97.33,0,.65-.01.98-.02v-18.77c-.33,0-.65.03-.98.03-23.29,0-38.41-13-38.41-40.22v-118.87h495.11v-18.45H20.52Z"/><path class="uuid-ebac80dc-4855-4656-b3d6-c6c67c2759a3" d="M20.52,688.4v-52.92H.26v190.24c0,39.31,23.89,58.97,58.67,58.97.33,0,.65-.01.98-.02v-18.77c-.33,0-.65.03-.98.03-23.29,0-38.41-13-38.41-40.22v-118.87h495.11v-18.45H20.52Z"/><path class="uuid-ebac80dc-4855-4656-b3d6-c6c67c2759a3" d="M574.05,121.87v189.24c0,18.77-5.38,33.4-15.98,43.5-9.93,9.46-24.34,14.46-41.67,14.47v-16.75c25.03,0,39.39-15.03,39.39-41.22v-119.87H60.68v-16.45h495.11v-52.92h18.26M575.05,120.87h-20.26v52.92H59.68v18.45h495.11v118.87c0,27.22-15.12,40.22-38.41,40.22-.33,0-.65-.03-.98-.03v18.77c.33,0,.65.02.98.02,34.78,0,58.67-19.66,58.67-58.97V120.87h0Z"/><path class="uuid-ebac80dc-4855-4656-b3d6-c6c67c2759a3" d="M574.05,458.85v189.24c0,18.77-5.38,33.4-15.98,43.5-9.93,9.46-24.34,14.46-41.67,14.47v-16.75c25.03,0,39.39-15.03,39.39-41.22v-119.87H60.68v-16.45h495.11v-52.92h18.26M575.05,457.85h-20.26v52.92H59.68v18.45h495.11v118.87c0,27.22-15.12,40.22-38.41,40.22-.33,0-.65-.03-.98-.03v18.77c.33,0,.65.02.98.02,34.78,0,58.67-19.66,58.67-58.97v-190.24h0Z"/></g><g id="uuid-dc0666b0-ec7b-468e-b78f-cdeeabcbde05"><path class="uuid-ebac80dc-4855-4656-b3d6-c6c67c2759a3" d="M435.84,332.98v-52.92h-20.26v190.24c0,39.31,23.89,58.97,58.67,58.97.33,0,.65-.01.98-.02v-18.77c-.33,0-.65.03-.98.03-23.29,0-38.41-13-38.41-40.22v-118.87h495.11v-18.45h-495.11Z"/><path class="uuid-ebac80dc-4855-4656-b3d6-c6c67c2759a3" d="M435.84,688.4v-52.92h-20.26v190.24c0,39.31,23.89,58.97,58.67,58.97.33,0,.65-.01.98-.02v-18.77c-.33,0-.65.03-.98.03-23.29,0-38.41-13-38.41-40.22v-118.87h495.11v-18.45h-495.11Z"/><path class="uuid-ebac80dc-4855-4656-b3d6-c6c67c2759a3" d="M989.36,121.87v189.24c0,18.77-5.38,33.4-15.98,43.5-9.93,9.46-24.34,14.46-41.67,14.47v-16.75c25.03,0,39.39-15.03,39.39-41.22v-119.87h-495.11v-16.45h495.11v-52.92h18.26M990.36,120.87h-20.26v52.92h-495.11v18.45h495.11v118.87c0,27.22-15.12,40.22-38.41,40.22-.33,0-.65-.03-.98-.03v18.77c.33,0,.65.02.98.02,34.78,0,58.67-19.66,58.67-58.97V120.87h0Z"/><path class="uuid-ebac80dc-4855-4656-b3d6-c6c67c2759a3" d="M989.36,458.85v189.24c0,18.77-5.38,33.4-15.98,43.5-9.93,9.46-24.34,14.46-41.67,14.47v-16.75c25.03,0,39.39-15.03,39.39-41.22v-119.87h-495.11v-16.45h495.11v-52.92h18.26M990.36,457.85h-20.26v52.92h-495.11v18.45h495.11v118.87c0,27.22-15.12,40.22-38.41,40.22-.33,0-.65-.03-.98-.03v18.77c.33,0,.65.02.98.02,34.78,0,58.67-19.66,58.67-58.97v-190.24h0Z"/></g><g id="uuid-8f966ae8-b17c-45ec-a607-7d2784f2a546"><path class="uuid-ebac80dc-4855-4656-b3d6-c6c67c2759a3" d="M851.15,332.98v-52.92h-20.26v190.24c0,39.31,23.89,58.97,58.67,58.97.33,0,.65-.01.98-.02v-18.77c-.33,0-.65.03-.98.03-23.29,0-38.41-13-38.41-40.22v-118.87h495.11v-18.45h-495.11Z"/><path class="uuid-ebac80dc-4855-4656-b3d6-c6c67c2759a3" d="M851.15,688.4v-52.92h-20.26v190.24c0,39.31,23.89,58.97,58.67,58.97.33,0,.65-.01.98-.02v-18.77c-.33,0-.65.03-.98.03-23.29,0-38.41-13-38.41-40.22v-118.87h495.11v-18.45h-495.11Z"/><path class="uuid-ebac80dc-4855-4656-b3d6-c6c67c2759a3" d="M1404.67,121.87v189.24c0,18.77-5.38,33.4-15.98,43.5-9.93,9.46-24.34,14.46-41.67,14.47v-16.75c25.03,0,39.39-15.03,39.39-41.22v-119.87h-495.11v-16.45h495.11v-52.92h18.26M1405.67,120.87h-20.26v52.92h-495.11v18.45h495.11v118.87c0,27.22-15.12,40.22-38.41,40.22-.33,0-.65-.03-.98-.03v18.77c.33,0,.65.02.98.02,34.78,0,58.67-19.66,58.67-58.97V120.87h0Z"/><path class="uuid-ebac80dc-4855-4656-b3d6-c6c67c2759a3" d="M1404.67,458.85v189.24c0,18.77-5.38,33.4-15.98,43.5-9.93,9.46-24.34,14.46-41.67,14.47v-16.75c25.03,0,39.39-15.03,39.39-41.22v-119.87h-495.11v-16.45h495.11v-52.92h18.26M1405.67,457.85h-20.26v52.92h-495.11v18.45h495.11v118.87c0,27.22-15.12,40.22-38.41,40.22-.33,0-.65-.03-.98-.03v18.77c.33,0,.65.02.98.02,34.78,0,58.67-19.66,58.67-58.97v-190.24h0Z"/></g><g id="uuid-d9b56ae0-a5c4-4c33-a8bd-8c99ec2897aa"><path class="uuid-ebac80dc-4855-4656-b3d6-c6c67c2759a3" d="M1266.46,332.98v-52.92h-20.26v190.24c0,39.31,23.89,58.97,58.67,58.97.33,0,.65-.01.98-.02v-18.77c-.33,0-.65.03-.98.03-23.29,0-38.41-13-38.41-40.22v-118.87h495.11v-18.45h-495.11Z"/><path class="uuid-ebac80dc-4855-4656-b3d6-c6c67c2759a3" d="M1266.46,688.4v-52.92h-20.26v190.24c0,39.31,23.89,58.97,58.67,58.97.33,0,.65-.01.98-.02v-18.77c-.33,0-.65.03-.98.03-23.29,0-38.41-13-38.41-40.22v-118.87h495.11v-18.45h-495.11Z"/><path class="uuid-ebac80dc-4855-4656-b3d6-c6c67c2759a3" d="M1819.99,121.87v189.24c0,18.77-5.38,33.4-15.98,43.5-9.93,9.46-24.34,14.46-41.67,14.47v-16.75c25.03,0,39.39-15.03,39.39-41.22v-119.87h-495.11v-16.45h495.11v-52.92h18.26M1820.99,120.87h-20.26v52.92h-495.11v18.45h495.11v118.87c0,27.22-15.12,40.22-38.41,40.22-.33,0-.65-.03-.98-.03v18.77c.33,0,.65.02.98.02,34.78,0,58.67-19.66,58.67-58.97V120.87h0Z"/><path class="uuid-ebac80dc-4855-4656-b3d6-c6c67c2759a3" d="M1819.99,458.85v189.24c0,18.77-5.38,33.4-15.98,43.5-9.93,9.46-24.34,14.46-41.67,14.47v-16.75c25.03,0,39.39-15.03,39.39-41.22v-119.87h-495.11v-16.45h495.11v-52.92h18.26M1820.99,457.85h-20.26v52.92h-495.11v18.45h495.11v118.87c0,27.22-15.12,40.22-38.41,40.22-.33,0-.65-.03-.98-.03v18.77c.33,0,.65.02.98.02,34.78,0,58.67-19.66,58.67-58.97v-190.24h0Z"/></g><g id="uuid-e94dcae6-dab5-4276-9b8e-6437112a5864"><path class="uuid-ebac80dc-4855-4656-b3d6-c6c67c2759a3" d="M1681.77,332.98v-52.92h-20.26v190.24c0,39.31,23.89,58.97,58.67,58.97.33,0,.65-.01.98-.02v-18.77c-.33,0-.65.03-.98.03-23.29,0-38.41-13-38.41-40.22v-118.87h495.11v-18.45h-495.11Z"/><path class="uuid-ebac80dc-4855-4656-b3d6-c6c67c2759a3" d="M1681.77,688.4v-52.92h-20.26v190.24c0,39.31,23.89,58.97,58.67,58.97.33,0,.65-.01.98-.02v-18.77c-.33,0-.65.03-.98.03-23.29,0-38.41-13-38.41-40.22v-118.87h495.11v-18.45h-495.11Z"/><path class="uuid-ebac80dc-4855-4656-b3d6-c6c67c2759a3" d="M2235.3,121.87v189.24c0,18.77-5.38,33.4-15.98,43.5-9.93,9.46-24.34,14.46-41.67,14.47v-16.75c25.03,0,39.39-15.03,39.39-41.22v-119.87h-495.11v-16.45h495.11v-52.92h18.26M2236.3,120.87h-20.26v52.92h-495.11v18.45h495.11v118.87c0,27.22-15.12,40.22-38.41,40.22-.33,0-.65-.03-.98-.03v18.77c.33,0,.65.02.98.02,34.78,0,58.67-19.66,58.67-58.97V120.87h0Z"/><path class="uuid-ebac80dc-4855-4656-b3d6-c6c67c2759a3" d="M2235.3,458.85v189.24c0,18.77-5.38,33.4-15.98,43.5-9.93,9.46-24.34,14.46-41.67,14.47v-16.75c25.03,0,39.39-15.03,39.39-41.22v-119.87h-495.11v-16.45h495.11v-52.92h18.26M2236.3,457.85h-20.26v52.92h-495.11v18.45h495.11v118.87c0,27.22-15.12,40.22-38.41,40.22-.33,0-.65-.03-.98-.03v18.77c.33,0,.65.02.98.02,34.78,0,58.67-19.66,58.67-58.97v-190.24h0Z"/></g><g id="uuid-f140a44a-3715-4844-9ce9-70ccb002718e"><path class="uuid-ebac80dc-4855-4656-b3d6-c6c67c2759a3" d="M2097.09,332.98v-52.92h-20.26v190.24c0,39.31,23.89,58.97,58.67,58.97.33,0,.65-.01.98-.02v-18.77c-.33,0-.65.03-.98.03-23.29,0-38.41-13-38.41-40.22v-118.87h495.11v-18.45h-495.11Z"/><path class="uuid-ebac80dc-4855-4656-b3d6-c6c67c2759a3" d="M2097.09,688.4v-52.92h-20.26v190.24c0,39.31,23.89,58.97,58.67,58.97.33,0,.65-.01.98-.02v-18.77c-.33,0-.65.03-.98.03-23.29,0-38.41-13-38.41-40.22v-118.87h495.11v-18.45h-495.11Z"/><path class="uuid-ebac80dc-4855-4656-b3d6-c6c67c2759a3" d="M2650.61,121.87v189.24c0,18.77-5.38,33.4-15.98,43.5-9.93,9.46-24.34,14.46-41.67,14.47v-16.75c25.03,0,39.39-15.03,39.39-41.22v-119.87h-495.11v-16.45h495.11v-52.92h18.26M2651.61,120.87h-20.26v52.92h-495.11v18.45h495.11v118.87c0,27.22-15.12,40.22-38.41,40.22-.33,0-.65-.03-.98-.03v18.77c.33,0,.65.02.98.02,34.78,0,58.67-19.66,58.67-58.97V120.87h0Z"/><path class="uuid-ebac80dc-4855-4656-b3d6-c6c67c2759a3" d="M2650.61,458.85v189.24c0,18.77-5.38,33.4-15.98,43.5-9.93,9.46-24.34,14.46-41.67,14.47v-16.75c25.03,0,39.39-15.03,39.39-41.22v-119.87h-495.11v-16.45h495.11v-52.92h18.26M2651.61,457.85h-20.26v52.92h-495.11v18.45h495.11v118.87c0,27.22-15.12,40.22-38.41,40.22-.33,0-.65-.03-.98-.03v18.77c.33,0,.65.02.98.02,34.78,0,58.67-19.66,58.67-58.97v-190.24h0Z"/></g><g id="uuid-73b22b50-fc7d-4125-acc1-c1561646594b"><path class="uuid-ebac80dc-4855-4656-b3d6-c6c67c2759a3" d="M-394.79,1022.03v-52.92h-20.26v190.24c0,39.31,23.89,58.97,58.67,58.97.33,0,.65-.01.98-.02v-18.77c-.33,0-.65.03-.98.03-23.29,0-38.41-13-38.41-40.22v-118.87H100.32v-18.45h-495.11Z"/><path class="uuid-ebac80dc-4855-4656-b3d6-c6c67c2759a3" d="M158.74,810.92v189.24c0,18.77-5.38,33.4-15.98,43.5-9.93,9.46-24.34,14.46-41.67,14.47v-16.75c25.03,0,39.39-15.03,39.39-41.22v-119.87h-495.11v-16.45H140.47v-52.92h18.26M159.74,809.92h-20.26v52.92h-495.11v18.45H139.47v118.87c0,27.22-15.12,40.22-38.41,40.22-.33,0-.65-.03-.98-.03v18.77c.33,0,.65.02.98.02,34.78,0,58.67-19.66,58.67-58.97v-190.24h0Z"/></g><g id="uuid-88aff875-bc40-4a23-aff8-e213df926469"><path class="uuid-ebac80dc-4855-4656-b3d6-c6c67c2759a3" d="M20.52,1022.03v-52.92H.26v190.24c0,39.31,23.89,58.97,58.67,58.97.33,0,.65-.01.98-.02v-18.77c-.33,0-.65.03-.98.03-23.29,0-38.41-13-38.41-40.22v-118.87h495.11v-18.45H20.52Z"/><path class="uuid-ebac80dc-4855-4656-b3d6-c6c67c2759a3" d="M574.05,810.92v189.24c0,18.77-5.38,33.4-15.98,43.5-9.93,9.46-24.34,14.46-41.67,14.47v-16.75c25.03,0,39.39-15.03,39.39-41.22v-119.87H60.68v-16.45h495.11v-52.92h18.26M575.05,809.92h-20.26v52.92H59.68v18.45h495.11v118.87c0,27.22-15.12,40.22-38.41,40.22-.33,0-.65-.03-.98-.03v18.77c.33,0,.65.02.98.02,34.78,0,58.67-19.66,58.67-58.97v-190.24h0Z"/></g><g id="uuid-b5e1eaef-33bb-471c-ad7a-c8ddc76d65bd"><path class="uuid-ebac80dc-4855-4656-b3d6-c6c67c2759a3" d="M435.84,1022.03v-52.92h-20.26v190.24c0,39.31,23.89,58.97,58.67,58.97.33,0,.65-.01.98-.02v-18.77c-.33,0-.65.03-.98.03-23.29,0-38.41-13-38.41-40.22v-118.87h495.11v-18.45h-495.11Z"/><path class="uuid-ebac80dc-4855-4656-b3d6-c6c67c2759a3" d="M989.36,810.92v189.24c0,18.77-5.38,33.4-15.98,43.5-9.93,9.46-24.34,14.46-41.67,14.47v-16.75c25.03,0,39.39-15.03,39.39-41.22v-119.87h-495.11v-16.45h495.11v-52.92h18.26M990.36,809.92h-20.26v52.92h-495.11v18.45h495.11v118.87c0,27.22-15.12,40.22-38.41,40.22-.33,0-.65-.03-.98-.03v18.77c.33,0,.65.02.98.02,34.78,0,58.67-19.66,58.67-58.97v-190.24h0Z"/></g><g id="uuid-64198c18-d6ac-48e7-b985-e9b3a2dcd944"><path class="uuid-ebac80dc-4855-4656-b3d6-c6c67c2759a3" d="M851.15,1022.03v-52.92h-20.26v190.24c0,39.31,23.89,58.97,58.67,58.97.33,0,.65-.01.98-.02v-18.77c-.33,0-.65.03-.98.03-23.29,0-38.41-13-38.41-40.22v-118.87h495.11v-18.45h-495.11Z"/><path class="uuid-ebac80dc-4855-4656-b3d6-c6c67c2759a3" d="M1404.67,810.92v189.24c0,18.77-5.38,33.4-15.98,43.5-9.93,9.46-24.34,14.46-41.67,14.47v-16.75c25.03,0,39.39-15.03,39.39-41.22v-119.87h-495.11v-16.45h495.11v-52.92h18.26M1405.67,809.92h-20.26v52.92h-495.11v18.45h495.11v118.87c0,27.22-15.12,40.22-38.41,40.22-.33,0-.65-.03-.98-.03v18.77c.33,0,.65.02.98.02,34.78,0,58.67-19.66,58.67-58.97v-190.24h0Z"/></g><g id="uuid-dea865b6-bd86-4fd4-a8e4-34a5299ad490"><path class="uuid-ebac80dc-4855-4656-b3d6-c6c67c2759a3" d="M1266.46,1022.03v-52.92h-20.26v190.24c0,39.31,23.89,58.97,58.67,58.97.33,0,.65-.01.98-.02v-18.77c-.33,0-.65.03-.98.03-23.29,0-38.41-13-38.41-40.22v-118.87h495.11v-18.45h-495.11Z"/><path class="uuid-ebac80dc-4855-4656-b3d6-c6c67c2759a3" d="M1819.99,810.92v189.24c0,18.77-5.38,33.4-15.98,43.5-9.93,9.46-24.34,14.46-41.67,14.47v-16.75c25.03,0,39.39-15.03,39.39-41.22v-119.87h-495.11v-16.45h495.11v-52.92h18.26M1820.99,809.92h-20.26v52.92h-495.11v18.45h495.11v118.87c0,27.22-15.12,40.22-38.41,40.22-.33,0-.65-.03-.98-.03v18.77c.33,0,.65.02.98.02,34.78,0,58.67-19.66,58.67-58.97v-190.24h0Z"/></g><g id="uuid-6c2a1687-0479-40e4-9975-3f7b094932b0"><path class="uuid-ebac80dc-4855-4656-b3d6-c6c67c2759a3" d="M1681.77,1022.03v-52.92h-20.26v190.24c0,39.31,23.89,58.97,58.67,58.97.33,0,.65-.01.98-.02v-18.77c-.33,0-.65.03-.98.03-23.29,0-38.41-13-38.41-40.22v-118.87h495.11v-18.45h-495.11Z"/><path class="uuid-ebac80dc-4855-4656-b3d6-c6c67c2759a3" d="M2235.3,810.92v189.24c0,18.77-5.38,33.4-15.98,43.5-9.93,9.46-24.34,14.46-41.67,14.47v-16.75c25.03,0,39.39-15.03,39.39-41.22v-119.87h-495.11v-16.45h495.11v-52.92h18.26M2236.3,809.92h-20.26v52.92h-495.11v18.45h495.11v118.87c0,27.22-15.12,40.22-38.41,40.22-.33,0-.65-.03-.98-.03v18.77c.33,0,.65.02.98.02,34.78,0,58.67-19.66,58.67-58.97v-190.24h0Z"/></g><g id="uuid-e7cb54b8-830d-44e5-a57f-e0cc75980fe9"><path class="uuid-ebac80dc-4855-4656-b3d6-c6c67c2759a3" d="M2097.09,1022.03v-52.92h-20.26v190.24c0,39.31,23.89,58.97,58.67,58.97.33,0,.65-.01.98-.02v-18.77c-.33,0-.65.03-.98.03-23.29,0-38.41-13-38.41-40.22v-118.87h495.11v-18.45h-495.11Z"/><path class="uuid-ebac80dc-4855-4656-b3d6-c6c67c2759a3" d="M2650.61,810.92v189.24c0,18.77-5.38,33.4-15.98,43.5-9.93,9.46-24.34,14.46-41.67,14.47v-16.75c25.03,0,39.39-15.03,39.39-41.22v-119.87h-495.11v-16.45h495.11v-52.92h18.26M2651.61,809.92h-20.26v52.92h-495.11v18.45h495.11v118.87c0,27.22-15.12,40.22-38.41,40.22-.33,0-.65-.03-.98-.03v18.77c.33,0,.65.02.98.02,34.78,0,58.67-19.66,58.67-58.97v-190.24h0Z"/></g></g></g></svg>