<?xml version="1.0" encoding="UTF-8"?><svg id="uuid-089ca2f0-bc05-425a-a47d-a80429d7fcd0" xmlns="http://www.w3.org/2000/svg" xmlns:xlink="http://www.w3.org/1999/xlink" viewBox="0 0 2494.65 1022.76"><defs><style>.uuid-6157db19-3c13-4251-8485-c73dbb3b18c4{fill:none;}.uuid-f02d8faa-7bcd-442e-b85b-6da623243b2b{fill:#d3dce4;}.uuid-f81ba325-b498-4039-b33f-621464e174b6{clip-path:url(#uuid-e741497f-91be-48a8-90bc-70bcea14a8e9);}.uuid-536a08d0-8fa6-45b0-9cc9-bcf95f5def78{fill:#f5f3eb;}</style><clipPath id="uuid-e741497f-91be-48a8-90bc-70bcea14a8e9"><rect class="uuid-6157db19-3c13-4251-8485-c73dbb3b18c4" y="0" width="2494.65" height="1022.76"/></clipPath></defs><g id="uuid-e85a866d-1211-4b95-b34e-973abdb36188"><rect class="uuid-536a08d0-8fa6-45b0-9cc9-bcf95f5def78" x="0" width="2494.65" height="1022.76"/><g class="uuid-f81ba325-b498-4039-b33f-621464e174b6"><g id="uuid-f23cbe10-9b2e-495a-8755-dc276471ef31"><path class="uuid-f02d8faa-7bcd-442e-b85b-6da623243b2b" d="M-394.79-.66v-52.92h-20.26v190.24c0,39.31,23.89,58.97,58.67,58.97.33,0,.65-.01.98-.02v-18.77c-.33,0-.65.03-.98.03-23.29,0-38.41-13-38.41-40.22V17.79H100.32V-.66h-495.11Z"/><path class="uuid-f02d8faa-7bcd-442e-b85b-6da623243b2b" d="M158.74-230.21V-40.97c0,18.77-5.38,33.4-15.98,43.5-9.93,9.46-24.34,14.46-41.67,14.47V.25c25.03,0,39.39-15.03,39.39-41.22v-119.87h-495.11v-16.45H140.47v-52.92h18.26M159.74-231.21h-20.26v52.92h-495.11v18.45H139.47V-40.97C139.47-13.75,124.35-.75,101.07-.75c-.33,0-.65-.03-.98-.03v18.77c.33,0,.65.02.98.02,34.78,0,58.67-19.66,58.67-58.97v-190.24h0Z"/></g><g id="uuid-5af58f56-8d1c-4bee-90ce-3c88ca6b122e"><path class="uuid-f02d8faa-7bcd-442e-b85b-6da623243b2b" d="M20.52-.66v-52.92H.26v190.24c0,39.31,23.89,58.97,58.67,58.97.33,0,.65-.01.98-.02v-18.77c-.33,0-.65.03-.98.03-23.29,0-38.41-13-38.41-40.22V17.79h495.11V-.66H20.52Z"/><path class="uuid-f02d8faa-7bcd-442e-b85b-6da623243b2b" d="M574.05-230.21V-40.97c0,18.77-5.38,33.4-15.98,43.5-9.93,9.46-24.34,14.46-41.67,14.47V.25c25.03,0,39.39-15.03,39.39-41.22v-119.87H60.68v-16.45h495.11v-52.92h18.26M575.05-231.21h-20.26v52.92H59.68v18.45h495.11V-40.97c0,27.22-15.12,40.22-38.41,40.22-.33,0-.65-.03-.98-.03v18.77c.33,0,.65.02.98.02,34.78,0,58.67-19.66,58.67-58.97v-190.24h0Z"/></g><g id="uuid-a0d4b2be-21c7-4293-808f-08f40527978c"><path class="uuid-f02d8faa-7bcd-442e-b85b-6da623243b2b" d="M435.84-.66v-52.92h-20.26v190.24c0,39.31,23.89,58.97,58.67,58.97.33,0,.65-.01.98-.02v-18.77c-.33,0-.65.03-.98.03-23.29,0-38.41-13-38.41-40.22V17.79h495.11V-.66h-495.11Z"/><path class="uuid-f02d8faa-7bcd-442e-b85b-6da623243b2b" d="M989.36-230.21V-40.97c0,18.77-5.38,33.4-15.98,43.5-9.93,9.46-24.34,14.46-41.67,14.47V.25c25.03,0,39.39-15.03,39.39-41.22v-119.87h-495.11v-16.45h495.11v-52.92h18.26M990.36-231.21h-20.26v52.92h-495.11v18.45h495.11V-40.97c0,27.22-15.12,40.22-38.41,40.22-.33,0-.65-.03-.98-.03v18.77c.33,0,.65.02.98.02,34.78,0,58.67-19.66,58.67-58.97v-190.24h0Z"/></g><g id="uuid-f3801bbc-db39-4f9b-a30f-488be613d6d8"><path class="uuid-f02d8faa-7bcd-442e-b85b-6da623243b2b" d="M851.15-.66v-52.92h-20.26v190.24c0,39.31,23.89,58.97,58.67,58.97.33,0,.65-.01.98-.02v-18.77c-.33,0-.65.03-.98.03-23.29,0-38.41-13-38.41-40.22V17.79h495.11V-.66h-495.11Z"/><path class="uuid-f02d8faa-7bcd-442e-b85b-6da623243b2b" d="M1404.67-230.21V-40.97c0,18.77-5.38,33.4-15.98,43.5-9.93,9.46-24.34,14.46-41.67,14.47V.25c25.03,0,39.39-15.03,39.39-41.22v-119.87h-495.11v-16.45h495.11v-52.92h18.26M1405.67-231.21h-20.26v52.92h-495.11v18.45h495.11V-40.97c0,27.22-15.12,40.22-38.41,40.22-.33,0-.65-.03-.98-.03v18.77c.33,0,.65.02.98.02,34.78,0,58.67-19.66,58.67-58.97v-190.24h0Z"/></g><g id="uuid-79ab8730-75f7-49db-a36e-f30450a5c35c"><path class="uuid-f02d8faa-7bcd-442e-b85b-6da623243b2b" d="M1266.46-.66v-52.92h-20.26v190.24c0,39.31,23.89,58.97,58.67,58.97.33,0,.65-.01.98-.02v-18.77c-.33,0-.65.03-.98.03-23.29,0-38.41-13-38.41-40.22V17.79h495.11V-.66h-495.11Z"/><path class="uuid-f02d8faa-7bcd-442e-b85b-6da623243b2b" d="M1819.99-230.21V-40.97c0,18.77-5.38,33.4-15.98,43.5-9.93,9.46-24.34,14.46-41.67,14.47V.25c25.03,0,39.39-15.03,39.39-41.22v-119.87h-495.11v-16.45h495.11v-52.92h18.26M1820.99-231.21h-20.26v52.92h-495.11v18.45h495.11V-40.97c0,27.22-15.12,40.22-38.41,40.22-.33,0-.65-.03-.98-.03v18.77c.33,0,.65.02.98.02,34.78,0,58.67-19.66,58.67-58.97v-190.24h0Z"/></g><g id="uuid-86c9d258-f5e1-4ae1-8b14-6fecfd65413e"><path class="uuid-f02d8faa-7bcd-442e-b85b-6da623243b2b" d="M1681.77-.66v-52.92h-20.26v190.24c0,39.31,23.89,58.97,58.67,58.97.33,0,.65-.01.98-.02v-18.77c-.33,0-.65.03-.98.03-23.29,0-38.41-13-38.41-40.22V17.79h495.11V-.66h-495.11Z"/><path class="uuid-f02d8faa-7bcd-442e-b85b-6da623243b2b" d="M2235.3-230.21V-40.97c0,18.77-5.38,33.4-15.98,43.5-9.93,9.46-24.34,14.46-41.67,14.47V.25c25.03,0,39.39-15.03,39.39-41.22v-119.87h-495.11v-16.45h495.11v-52.92h18.26M2236.3-231.21h-20.26v52.92h-495.11v18.45h495.11V-40.97c0,27.22-15.12,40.22-38.41,40.22-.33,0-.65-.03-.98-.03v18.77c.33,0,.65.02.98.02,34.78,0,58.67-19.66,58.67-58.97v-190.24h0Z"/></g><g id="uuid-a1f67217-cfc5-43f2-bf47-d42d05980d14"><path class="uuid-f02d8faa-7bcd-442e-b85b-6da623243b2b" d="M2097.09-.66v-52.92h-20.26v190.24c0,39.31,23.89,58.97,58.67,58.97.33,0,.65-.01.98-.02v-18.77c-.33,0-.65.03-.98.03-23.29,0-38.41-13-38.41-40.22V17.79h495.11V-.66h-495.11Z"/><path class="uuid-f02d8faa-7bcd-442e-b85b-6da623243b2b" d="M2650.61-230.21V-40.97c0,18.77-5.38,33.4-15.98,43.5-9.93,9.46-24.34,14.46-41.67,14.47V.25c25.03,0,39.39-15.03,39.39-41.22v-119.87h-495.11v-16.45h495.11v-52.92h18.26M2651.61-231.21h-20.26v52.92h-495.11v18.45h495.11V-40.97c0,27.22-15.12,40.22-38.41,40.22-.33,0-.65-.03-.98-.03v18.77c.33,0,.65.02.98.02,34.78,0,58.67-19.66,58.67-58.97v-190.24h0Z"/></g><g id="uuid-57e11c1f-bd1c-45ab-8cf1-086aef4664c2"><path class="uuid-f02d8faa-7bcd-442e-b85b-6da623243b2b" d="M-394.79,332.98v-52.92h-20.26v190.24c0,39.31,23.89,58.97,58.67,58.97.33,0,.65-.01.98-.02v-18.77c-.33,0-.65.03-.98.03-23.29,0-38.41-13-38.41-40.22v-118.87H100.32v-18.45h-495.11Z"/><path class="uuid-f02d8faa-7bcd-442e-b85b-6da623243b2b" d="M-394.79,688.4v-52.92h-20.26v190.24c0,39.31,23.89,58.97,58.67,58.97.33,0,.65-.01.98-.02v-18.77c-.33,0-.65.03-.98.03-23.29,0-38.41-13-38.41-40.22v-118.87H100.32v-18.45h-495.11Z"/><path class="uuid-f02d8faa-7bcd-442e-b85b-6da623243b2b" d="M158.74,121.87v189.24c0,18.77-5.38,33.4-15.98,43.5-9.93,9.46-24.34,14.46-41.67,14.47v-16.75c25.03,0,39.39-15.03,39.39-41.22v-119.87h-495.11v-16.45H140.47v-52.92h18.26M159.74,120.87h-20.26v52.92h-495.11v18.45H139.47v118.87c0,27.22-15.12,40.22-38.41,40.22-.33,0-.65-.03-.98-.03v18.77c.33,0,.65.02.98.02,34.78,0,58.67-19.66,58.67-58.97V120.87h0Z"/><path class="uuid-f02d8faa-7bcd-442e-b85b-6da623243b2b" d="M158.74,458.85v189.24c0,18.77-5.38,33.4-15.98,43.5-9.93,9.46-24.34,14.46-41.67,14.47v-16.75c25.03,0,39.39-15.03,39.39-41.22v-119.87h-495.11v-16.45H140.47v-52.92h18.26M159.74,457.85h-20.26v52.92h-495.11v18.45H139.47v118.87c0,27.22-15.12,40.22-38.41,40.22-.33,0-.65-.03-.98-.03v18.77c.33,0,.65.02.98.02,34.78,0,58.67-19.66,58.67-58.97v-190.24h0Z"/></g><g id="uuid-f241e249-c0aa-4259-9d88-3d6bacff32b6"><path class="uuid-f02d8faa-7bcd-442e-b85b-6da623243b2b" d="M20.52,332.98v-52.92H.26v190.24c0,39.31,23.89,58.97,58.67,58.97.33,0,.65-.01.98-.02v-18.77c-.33,0-.65.03-.98.03-23.29,0-38.41-13-38.41-40.22v-118.87h495.11v-18.45H20.52Z"/><path class="uuid-f02d8faa-7bcd-442e-b85b-6da623243b2b" d="M20.52,688.4v-52.92H.26v190.24c0,39.31,23.89,58.97,58.67,58.97.33,0,.65-.01.98-.02v-18.77c-.33,0-.65.03-.98.03-23.29,0-38.41-13-38.41-40.22v-118.87h495.11v-18.45H20.52Z"/><path class="uuid-f02d8faa-7bcd-442e-b85b-6da623243b2b" d="M574.05,121.87v189.24c0,18.77-5.38,33.4-15.98,43.5-9.93,9.46-24.34,14.46-41.67,14.47v-16.75c25.03,0,39.39-15.03,39.39-41.22v-119.87H60.68v-16.45h495.11v-52.92h18.26M575.05,120.87h-20.26v52.92H59.68v18.45h495.11v118.87c0,27.22-15.12,40.22-38.41,40.22-.33,0-.65-.03-.98-.03v18.77c.33,0,.65.02.98.02,34.78,0,58.67-19.66,58.67-58.97V120.87h0Z"/><path class="uuid-f02d8faa-7bcd-442e-b85b-6da623243b2b" d="M574.05,458.85v189.24c0,18.77-5.38,33.4-15.98,43.5-9.93,9.46-24.34,14.46-41.67,14.47v-16.75c25.03,0,39.39-15.03,39.39-41.22v-119.87H60.68v-16.45h495.11v-52.92h18.26M575.05,457.85h-20.26v52.92H59.68v18.45h495.11v118.87c0,27.22-15.12,40.22-38.41,40.22-.33,0-.65-.03-.98-.03v18.77c.33,0,.65.02.98.02,34.78,0,58.67-19.66,58.67-58.97v-190.24h0Z"/></g><g id="uuid-7865a840-3d23-4e56-a4f0-69538a194ce3"><path class="uuid-f02d8faa-7bcd-442e-b85b-6da623243b2b" d="M435.84,332.98v-52.92h-20.26v190.24c0,39.31,23.89,58.97,58.67,58.97.33,0,.65-.01.98-.02v-18.77c-.33,0-.65.03-.98.03-23.29,0-38.41-13-38.41-40.22v-118.87h495.11v-18.45h-495.11Z"/><path class="uuid-f02d8faa-7bcd-442e-b85b-6da623243b2b" d="M435.84,688.4v-52.92h-20.26v190.24c0,39.31,23.89,58.97,58.67,58.97.33,0,.65-.01.98-.02v-18.77c-.33,0-.65.03-.98.03-23.29,0-38.41-13-38.41-40.22v-118.87h495.11v-18.45h-495.11Z"/><path class="uuid-f02d8faa-7bcd-442e-b85b-6da623243b2b" d="M989.36,121.87v189.24c0,18.77-5.38,33.4-15.98,43.5-9.93,9.46-24.34,14.46-41.67,14.47v-16.75c25.03,0,39.39-15.03,39.39-41.22v-119.87h-495.11v-16.45h495.11v-52.92h18.26M990.36,120.87h-20.26v52.92h-495.11v18.45h495.11v118.87c0,27.22-15.12,40.22-38.41,40.22-.33,0-.65-.03-.98-.03v18.77c.33,0,.65.02.98.02,34.78,0,58.67-19.66,58.67-58.97V120.87h0Z"/><path class="uuid-f02d8faa-7bcd-442e-b85b-6da623243b2b" d="M989.36,458.85v189.24c0,18.77-5.38,33.4-15.98,43.5-9.93,9.46-24.34,14.46-41.67,14.47v-16.75c25.03,0,39.39-15.03,39.39-41.22v-119.87h-495.11v-16.45h495.11v-52.92h18.26M990.36,457.85h-20.26v52.92h-495.11v18.45h495.11v118.87c0,27.22-15.12,40.22-38.41,40.22-.33,0-.65-.03-.98-.03v18.77c.33,0,.65.02.98.02,34.78,0,58.67-19.66,58.67-58.97v-190.24h0Z"/></g><g id="uuid-3068fc48-6a9f-49aa-bdcf-82240b1fad4d"><path class="uuid-f02d8faa-7bcd-442e-b85b-6da623243b2b" d="M851.15,332.98v-52.92h-20.26v190.24c0,39.31,23.89,58.97,58.67,58.97.33,0,.65-.01.98-.02v-18.77c-.33,0-.65.03-.98.03-23.29,0-38.41-13-38.41-40.22v-118.87h495.11v-18.45h-495.11Z"/><path class="uuid-f02d8faa-7bcd-442e-b85b-6da623243b2b" d="M851.15,688.4v-52.92h-20.26v190.24c0,39.31,23.89,58.97,58.67,58.97.33,0,.65-.01.98-.02v-18.77c-.33,0-.65.03-.98.03-23.29,0-38.41-13-38.41-40.22v-118.87h495.11v-18.45h-495.11Z"/><path class="uuid-f02d8faa-7bcd-442e-b85b-6da623243b2b" d="M1404.67,121.87v189.24c0,18.77-5.38,33.4-15.98,43.5-9.93,9.46-24.34,14.46-41.67,14.47v-16.75c25.03,0,39.39-15.03,39.39-41.22v-119.87h-495.11v-16.45h495.11v-52.92h18.26M1405.67,120.87h-20.26v52.92h-495.11v18.45h495.11v118.87c0,27.22-15.12,40.22-38.41,40.22-.33,0-.65-.03-.98-.03v18.77c.33,0,.65.02.98.02,34.78,0,58.67-19.66,58.67-58.97V120.87h0Z"/><path class="uuid-f02d8faa-7bcd-442e-b85b-6da623243b2b" d="M1404.67,458.85v189.24c0,18.77-5.38,33.4-15.98,43.5-9.93,9.46-24.34,14.46-41.67,14.47v-16.75c25.03,0,39.39-15.03,39.39-41.22v-119.87h-495.11v-16.45h495.11v-52.92h18.26M1405.67,457.85h-20.26v52.92h-495.11v18.45h495.11v118.87c0,27.22-15.12,40.22-38.41,40.22-.33,0-.65-.03-.98-.03v18.77c.33,0,.65.02.98.02,34.78,0,58.67-19.66,58.67-58.97v-190.24h0Z"/></g><g id="uuid-80f004dc-f914-4acd-be14-6726e964025d"><path class="uuid-f02d8faa-7bcd-442e-b85b-6da623243b2b" d="M1266.46,332.98v-52.92h-20.26v190.24c0,39.31,23.89,58.97,58.67,58.97.33,0,.65-.01.98-.02v-18.77c-.33,0-.65.03-.98.03-23.29,0-38.41-13-38.41-40.22v-118.87h495.11v-18.45h-495.11Z"/><path class="uuid-f02d8faa-7bcd-442e-b85b-6da623243b2b" d="M1266.46,688.4v-52.92h-20.26v190.24c0,39.31,23.89,58.97,58.67,58.97.33,0,.65-.01.98-.02v-18.77c-.33,0-.65.03-.98.03-23.29,0-38.41-13-38.41-40.22v-118.87h495.11v-18.45h-495.11Z"/><path class="uuid-f02d8faa-7bcd-442e-b85b-6da623243b2b" d="M1819.99,121.87v189.24c0,18.77-5.38,33.4-15.98,43.5-9.93,9.46-24.34,14.46-41.67,14.47v-16.75c25.03,0,39.39-15.03,39.39-41.22v-119.87h-495.11v-16.45h495.11v-52.92h18.26M1820.99,120.87h-20.26v52.92h-495.11v18.45h495.11v118.87c0,27.22-15.12,40.22-38.41,40.22-.33,0-.65-.03-.98-.03v18.77c.33,0,.65.02.98.02,34.78,0,58.67-19.66,58.67-58.97V120.87h0Z"/><path class="uuid-f02d8faa-7bcd-442e-b85b-6da623243b2b" d="M1819.99,458.85v189.24c0,18.77-5.38,33.4-15.98,43.5-9.93,9.46-24.34,14.46-41.67,14.47v-16.75c25.03,0,39.39-15.03,39.39-41.22v-119.87h-495.11v-16.45h495.11v-52.92h18.26M1820.99,457.85h-20.26v52.92h-495.11v18.45h495.11v118.87c0,27.22-15.12,40.22-38.41,40.22-.33,0-.65-.03-.98-.03v18.77c.33,0,.65.02.98.02,34.78,0,58.67-19.66,58.67-58.97v-190.24h0Z"/></g><g id="uuid-e1f3f302-c420-4405-a9ef-7c23fb31f56b"><path class="uuid-f02d8faa-7bcd-442e-b85b-6da623243b2b" d="M1681.77,332.98v-52.92h-20.26v190.24c0,39.31,23.89,58.97,58.67,58.97.33,0,.65-.01.98-.02v-18.77c-.33,0-.65.03-.98.03-23.29,0-38.41-13-38.41-40.22v-118.87h495.11v-18.45h-495.11Z"/><path class="uuid-f02d8faa-7bcd-442e-b85b-6da623243b2b" d="M1681.77,688.4v-52.92h-20.26v190.24c0,39.31,23.89,58.97,58.67,58.97.33,0,.65-.01.98-.02v-18.77c-.33,0-.65.03-.98.03-23.29,0-38.41-13-38.41-40.22v-118.87h495.11v-18.45h-495.11Z"/><path class="uuid-f02d8faa-7bcd-442e-b85b-6da623243b2b" d="M2235.3,121.87v189.24c0,18.77-5.38,33.4-15.98,43.5-9.93,9.46-24.34,14.46-41.67,14.47v-16.75c25.03,0,39.39-15.03,39.39-41.22v-119.87h-495.11v-16.45h495.11v-52.92h18.26M2236.3,120.87h-20.26v52.92h-495.11v18.45h495.11v118.87c0,27.22-15.12,40.22-38.41,40.22-.33,0-.65-.03-.98-.03v18.77c.33,0,.65.02.98.02,34.78,0,58.67-19.66,58.67-58.97V120.87h0Z"/><path class="uuid-f02d8faa-7bcd-442e-b85b-6da623243b2b" d="M2235.3,458.85v189.24c0,18.77-5.38,33.4-15.98,43.5-9.93,9.46-24.34,14.46-41.67,14.47v-16.75c25.03,0,39.39-15.03,39.39-41.22v-119.87h-495.11v-16.45h495.11v-52.92h18.26M2236.3,457.85h-20.26v52.92h-495.11v18.45h495.11v118.87c0,27.22-15.12,40.22-38.41,40.22-.33,0-.65-.03-.98-.03v18.77c.33,0,.65.02.98.02,34.78,0,58.67-19.66,58.67-58.97v-190.24h0Z"/></g><g id="uuid-c913808c-04f6-42a5-9603-e9d1b7f269b8"><path class="uuid-f02d8faa-7bcd-442e-b85b-6da623243b2b" d="M2097.09,332.98v-52.92h-20.26v190.24c0,39.31,23.89,58.97,58.67,58.97.33,0,.65-.01.98-.02v-18.77c-.33,0-.65.03-.98.03-23.29,0-38.41-13-38.41-40.22v-118.87h495.11v-18.45h-495.11Z"/><path class="uuid-f02d8faa-7bcd-442e-b85b-6da623243b2b" d="M2097.09,688.4v-52.92h-20.26v190.24c0,39.31,23.89,58.97,58.67,58.97.33,0,.65-.01.98-.02v-18.77c-.33,0-.65.03-.98.03-23.29,0-38.41-13-38.41-40.22v-118.87h495.11v-18.45h-495.11Z"/><path class="uuid-f02d8faa-7bcd-442e-b85b-6da623243b2b" d="M2650.61,121.87v189.24c0,18.77-5.38,33.4-15.98,43.5-9.93,9.46-24.34,14.46-41.67,14.47v-16.75c25.03,0,39.39-15.03,39.39-41.22v-119.87h-495.11v-16.45h495.11v-52.92h18.26M2651.61,120.87h-20.26v52.92h-495.11v18.45h495.11v118.87c0,27.22-15.12,40.22-38.41,40.22-.33,0-.65-.03-.98-.03v18.77c.33,0,.65.02.98.02,34.78,0,58.67-19.66,58.67-58.97V120.87h0Z"/><path class="uuid-f02d8faa-7bcd-442e-b85b-6da623243b2b" d="M2650.61,458.85v189.24c0,18.77-5.38,33.4-15.98,43.5-9.93,9.46-24.34,14.46-41.67,14.47v-16.75c25.03,0,39.39-15.03,39.39-41.22v-119.87h-495.11v-16.45h495.11v-52.92h18.26M2651.61,457.85h-20.26v52.92h-495.11v18.45h495.11v118.87c0,27.22-15.12,40.22-38.41,40.22-.33,0-.65-.03-.98-.03v18.77c.33,0,.65.02.98.02,34.78,0,58.67-19.66,58.67-58.97v-190.24h0Z"/></g><g id="uuid-1f0abfbf-5c53-4d8e-b808-b8f2bfbbfd51"><path class="uuid-f02d8faa-7bcd-442e-b85b-6da623243b2b" d="M-394.79,1022.03v-52.92h-20.26v190.24c0,39.31,23.89,58.97,58.67,58.97.33,0,.65-.01.98-.02v-18.77c-.33,0-.65.03-.98.03-23.29,0-38.41-13-38.41-40.22v-118.87H100.32v-18.45h-495.11Z"/><path class="uuid-f02d8faa-7bcd-442e-b85b-6da623243b2b" d="M158.74,810.92v189.24c0,18.77-5.38,33.4-15.98,43.5-9.93,9.46-24.34,14.46-41.67,14.47v-16.75c25.03,0,39.39-15.03,39.39-41.22v-119.87h-495.11v-16.45H140.47v-52.92h18.26M159.74,809.92h-20.26v52.92h-495.11v18.45H139.47v118.87c0,27.22-15.12,40.22-38.41,40.22-.33,0-.65-.03-.98-.03v18.77c.33,0,.65.02.98.02,34.78,0,58.67-19.66,58.67-58.97v-190.24h0Z"/></g><g id="uuid-fc4ec083-a4ce-4454-b4c4-bb06698aef5f"><path class="uuid-f02d8faa-7bcd-442e-b85b-6da623243b2b" d="M20.52,1022.03v-52.92H.26v190.24c0,39.31,23.89,58.97,58.67,58.97.33,0,.65-.01.98-.02v-18.77c-.33,0-.65.03-.98.03-23.29,0-38.41-13-38.41-40.22v-118.87h495.11v-18.45H20.52Z"/><path class="uuid-f02d8faa-7bcd-442e-b85b-6da623243b2b" d="M574.05,810.92v189.24c0,18.77-5.38,33.4-15.98,43.5-9.93,9.46-24.34,14.46-41.67,14.47v-16.75c25.03,0,39.39-15.03,39.39-41.22v-119.87H60.68v-16.45h495.11v-52.92h18.26M575.05,809.92h-20.26v52.92H59.68v18.45h495.11v118.87c0,27.22-15.12,40.22-38.41,40.22-.33,0-.65-.03-.98-.03v18.77c.33,0,.65.02.98.02,34.78,0,58.67-19.66,58.67-58.97v-190.24h0Z"/></g><g id="uuid-7c7486b7-3266-4e13-ac16-0dde94ca75ef"><path class="uuid-f02d8faa-7bcd-442e-b85b-6da623243b2b" d="M435.84,1022.03v-52.92h-20.26v190.24c0,39.31,23.89,58.97,58.67,58.97.33,0,.65-.01.98-.02v-18.77c-.33,0-.65.03-.98.03-23.29,0-38.41-13-38.41-40.22v-118.87h495.11v-18.45h-495.11Z"/><path class="uuid-f02d8faa-7bcd-442e-b85b-6da623243b2b" d="M989.36,810.92v189.24c0,18.77-5.38,33.4-15.98,43.5-9.93,9.46-24.34,14.46-41.67,14.47v-16.75c25.03,0,39.39-15.03,39.39-41.22v-119.87h-495.11v-16.45h495.11v-52.92h18.26M990.36,809.92h-20.26v52.92h-495.11v18.45h495.11v118.87c0,27.22-15.12,40.22-38.41,40.22-.33,0-.65-.03-.98-.03v18.77c.33,0,.65.02.98.02,34.78,0,58.67-19.66,58.67-58.97v-190.24h0Z"/></g><g id="uuid-6f4e6034-ce9c-49c6-b578-3a410b14cff6"><path class="uuid-f02d8faa-7bcd-442e-b85b-6da623243b2b" d="M851.15,1022.03v-52.92h-20.26v190.24c0,39.31,23.89,58.97,58.67,58.97.33,0,.65-.01.98-.02v-18.77c-.33,0-.65.03-.98.03-23.29,0-38.41-13-38.41-40.22v-118.87h495.11v-18.45h-495.11Z"/><path class="uuid-f02d8faa-7bcd-442e-b85b-6da623243b2b" d="M1404.67,810.92v189.24c0,18.77-5.38,33.4-15.98,43.5-9.93,9.46-24.34,14.46-41.67,14.47v-16.75c25.03,0,39.39-15.03,39.39-41.22v-119.87h-495.11v-16.45h495.11v-52.92h18.26M1405.67,809.92h-20.26v52.92h-495.11v18.45h495.11v118.87c0,27.22-15.12,40.22-38.41,40.22-.33,0-.65-.03-.98-.03v18.77c.33,0,.65.02.98.02,34.78,0,58.67-19.66,58.67-58.97v-190.24h0Z"/></g><g id="uuid-d757ba2a-ce24-4773-8a73-1a14dd95b673"><path class="uuid-f02d8faa-7bcd-442e-b85b-6da623243b2b" d="M1266.46,1022.03v-52.92h-20.26v190.24c0,39.31,23.89,58.97,58.67,58.97.33,0,.65-.01.98-.02v-18.77c-.33,0-.65.03-.98.03-23.29,0-38.41-13-38.41-40.22v-118.87h495.11v-18.45h-495.11Z"/><path class="uuid-f02d8faa-7bcd-442e-b85b-6da623243b2b" d="M1819.99,810.92v189.24c0,18.77-5.38,33.4-15.98,43.5-9.93,9.46-24.34,14.46-41.67,14.47v-16.75c25.03,0,39.39-15.03,39.39-41.22v-119.87h-495.11v-16.45h495.11v-52.92h18.26M1820.99,809.92h-20.26v52.92h-495.11v18.45h495.11v118.87c0,27.22-15.12,40.22-38.41,40.22-.33,0-.65-.03-.98-.03v18.77c.33,0,.65.02.98.02,34.78,0,58.67-19.66,58.67-58.97v-190.24h0Z"/></g><g id="uuid-b4feaba7-2766-40fc-a0bb-2cea6919484d"><path class="uuid-f02d8faa-7bcd-442e-b85b-6da623243b2b" d="M1681.77,1022.03v-52.92h-20.26v190.24c0,39.31,23.89,58.97,58.67,58.97.33,0,.65-.01.98-.02v-18.77c-.33,0-.65.03-.98.03-23.29,0-38.41-13-38.41-40.22v-118.87h495.11v-18.45h-495.11Z"/><path class="uuid-f02d8faa-7bcd-442e-b85b-6da623243b2b" d="M2235.3,810.92v189.24c0,18.77-5.38,33.4-15.98,43.5-9.93,9.46-24.34,14.46-41.67,14.47v-16.75c25.03,0,39.39-15.03,39.39-41.22v-119.87h-495.11v-16.45h495.11v-52.92h18.26M2236.3,809.92h-20.26v52.92h-495.11v18.45h495.11v118.87c0,27.22-15.12,40.22-38.41,40.22-.33,0-.65-.03-.98-.03v18.77c.33,0,.65.02.98.02,34.78,0,58.67-19.66,58.67-58.97v-190.24h0Z"/></g><g id="uuid-ff1acfae-8340-4f0d-9ffe-71bd113e44b4"><path class="uuid-f02d8faa-7bcd-442e-b85b-6da623243b2b" d="M2097.09,1022.03v-52.92h-20.26v190.24c0,39.31,23.89,58.97,58.67,58.97.33,0,.65-.01.98-.02v-18.77c-.33,0-.65.03-.98.03-23.29,0-38.41-13-38.41-40.22v-118.87h495.11v-18.45h-495.11Z"/><path class="uuid-f02d8faa-7bcd-442e-b85b-6da623243b2b" d="M2650.61,810.92v189.24c0,18.77-5.38,33.4-15.98,43.5-9.93,9.46-24.34,14.46-41.67,14.47v-16.75c25.03,0,39.39-15.03,39.39-41.22v-119.87h-495.11v-16.45h495.11v-52.92h18.26M2651.61,809.92h-20.26v52.92h-495.11v18.45h495.11v118.87c0,27.22-15.12,40.22-38.41,40.22-.33,0-.65-.03-.98-.03v18.77c.33,0,.65.02.98.02,34.78,0,58.67-19.66,58.67-58.97v-190.24h0Z"/></g></g></g></svg>