<?xml version="1.0" encoding="UTF-8"?><svg id="uuid-474ada46-46ec-4f26-888a-b9b423ab1e52" xmlns="http://www.w3.org/2000/svg" xmlns:xlink="http://www.w3.org/1999/xlink" viewBox="0 0 2494.65 1022.76"><defs><style>.uuid-8f61de0e-8f95-45c1-be4f-7ca1ca8925ae{fill:#d8ebca;}.uuid-ae0b376c-011f-49cf-b0b9-26e48ee6a11a{fill:none;}.uuid-182a0265-4ec0-4bbe-ae14-4dc366a44ef0{clip-path:url(#uuid-e85433ad-49e3-466b-9672-f8c1776a5533);}</style><clipPath id="uuid-e85433ad-49e3-466b-9672-f8c1776a5533"><rect class="uuid-ae0b376c-011f-49cf-b0b9-26e48ee6a11a" width="2494.65" height="1022.76"/></clipPath></defs><g id="uuid-cf61e3be-bcbf-470b-963c-082eff05f2b8"><g class="uuid-182a0265-4ec0-4bbe-ae14-4dc366a44ef0"><g id="uuid-32952989-310b-4ae0-a948-d66c4a44ba65"><path class="uuid-8f61de0e-8f95-45c1-be4f-7ca1ca8925ae" d="M-394.29-.66v-52.92h-20.26v190.24c0,39.31,23.89,58.97,58.67,58.97.33,0,.65-.01.98-.02v-18.77c-.33,0-.65.03-.98.03-23.29,0-38.41-13-38.41-40.22V17.79H100.82V-.66h-495.11Z"/><path class="uuid-8f61de0e-8f95-45c1-be4f-7ca1ca8925ae" d="M159.24-230.21V-40.97c0,18.77-5.38,33.4-15.98,43.5-9.93,9.46-24.34,14.46-41.67,14.47V.25c25.03,0,39.39-15.03,39.39-41.22v-119.87h-495.11v-16.45H140.97v-52.92h18.26M160.24-231.21h-20.26v52.92h-495.11v18.45H139.97V-40.97C139.97-13.75,124.85-.75,101.57-.75c-.33,0-.65-.03-.98-.03v18.77c.33,0,.65.02.98.02,34.78,0,58.67-19.66,58.67-58.97v-190.24h0Z"/></g><g id="uuid-28e74d49-0bf9-4562-b0fb-ede34c9097ff"><path class="uuid-8f61de0e-8f95-45c1-be4f-7ca1ca8925ae" d="M21.02-.66v-52.92H.76v190.24c0,39.31,23.89,58.97,58.67,58.97.33,0,.65-.01.98-.02v-18.77c-.33,0-.65.03-.98.03-23.29,0-38.41-13-38.41-40.22V17.79h495.11V-.66H21.02Z"/><path class="uuid-8f61de0e-8f95-45c1-be4f-7ca1ca8925ae" d="M574.55-230.21V-40.97c0,18.77-5.38,33.4-15.98,43.5-9.93,9.46-24.34,14.46-41.67,14.47V.25c25.03,0,39.39-15.03,39.39-41.22v-119.87H61.18v-16.45h495.11v-52.92h18.26M575.55-231.21h-20.26v52.92H60.18v18.45h495.11V-40.97c0,27.22-15.12,40.22-38.41,40.22-.33,0-.65-.03-.98-.03v18.77c.33,0,.65.02.98.02,34.78,0,58.67-19.66,58.67-58.97v-190.24h0Z"/></g><g id="uuid-b48d1cf6-a870-4e0c-aa49-b984784d8545"><path class="uuid-8f61de0e-8f95-45c1-be4f-7ca1ca8925ae" d="M436.34-.66v-52.92h-20.26v190.24c0,39.31,23.89,58.97,58.67,58.97.33,0,.65-.01.98-.02v-18.77c-.33,0-.65.03-.98.03-23.29,0-38.41-13-38.41-40.22V17.79h495.11V-.66h-495.11Z"/><path class="uuid-8f61de0e-8f95-45c1-be4f-7ca1ca8925ae" d="M989.86-230.21V-40.97c0,18.77-5.38,33.4-15.98,43.5-9.93,9.46-24.34,14.46-41.67,14.47V.25c25.03,0,39.39-15.03,39.39-41.22v-119.87h-495.11v-16.45h495.11v-52.92h18.26M990.86-231.21h-20.26v52.92h-495.11v18.45h495.11V-40.97c0,27.22-15.12,40.22-38.41,40.22-.33,0-.65-.03-.98-.03v18.77c.33,0,.65.02.98.02,34.78,0,58.67-19.66,58.67-58.97v-190.24h0Z"/></g><g id="uuid-21a08f82-4f7d-4172-8191-e9d9fee6e90d"><path class="uuid-8f61de0e-8f95-45c1-be4f-7ca1ca8925ae" d="M851.65-.66v-52.92h-20.26v190.24c0,39.31,23.89,58.97,58.67,58.97.33,0,.65-.01.98-.02v-18.77c-.33,0-.65.03-.98.03-23.29,0-38.41-13-38.41-40.22V17.79h495.11V-.66h-495.11Z"/><path class="uuid-8f61de0e-8f95-45c1-be4f-7ca1ca8925ae" d="M1405.17-230.21V-40.97c0,18.77-5.38,33.4-15.98,43.5-9.93,9.46-24.34,14.46-41.67,14.47V.25c25.03,0,39.39-15.03,39.39-41.22v-119.87h-495.11v-16.45h495.11v-52.92h18.26M1406.17-231.21h-20.26v52.92h-495.11v18.45h495.11V-40.97c0,27.22-15.12,40.22-38.41,40.22-.33,0-.65-.03-.98-.03v18.77c.33,0,.65.02.98.02,34.78,0,58.67-19.66,58.67-58.97v-190.24h0Z"/></g><g id="uuid-4aa32dbb-6c45-4ca5-a67d-91668c2efd20"><path class="uuid-8f61de0e-8f95-45c1-be4f-7ca1ca8925ae" d="M1266.96-.66v-52.92h-20.26v190.24c0,39.31,23.89,58.97,58.67,58.97.33,0,.65-.01.98-.02v-18.77c-.33,0-.65.03-.98.03-23.29,0-38.41-13-38.41-40.22V17.79h495.11V-.66h-495.11Z"/><path class="uuid-8f61de0e-8f95-45c1-be4f-7ca1ca8925ae" d="M1820.49-230.21V-40.97c0,18.77-5.38,33.4-15.98,43.5-9.93,9.46-24.34,14.46-41.67,14.47V.25c25.03,0,39.39-15.03,39.39-41.22v-119.87h-495.11v-16.45h495.11v-52.92h18.26M1821.49-231.21h-20.26v52.92h-495.11v18.45h495.11V-40.97c0,27.22-15.12,40.22-38.41,40.22-.33,0-.65-.03-.98-.03v18.77c.33,0,.65.02.98.02,34.78,0,58.67-19.66,58.67-58.97v-190.24h0Z"/></g><g id="uuid-1ffeb40b-2080-4a27-8aa1-80b472dc0192"><path class="uuid-8f61de0e-8f95-45c1-be4f-7ca1ca8925ae" d="M1682.27-.66v-52.92h-20.26v190.24c0,39.31,23.89,58.97,58.67,58.97.33,0,.65-.01.98-.02v-18.77c-.33,0-.65.03-.98.03-23.29,0-38.41-13-38.41-40.22V17.79h495.11V-.66h-495.11Z"/><path class="uuid-8f61de0e-8f95-45c1-be4f-7ca1ca8925ae" d="M2235.8-230.21V-40.97c0,18.77-5.38,33.4-15.98,43.5-9.93,9.46-24.34,14.46-41.67,14.47V.25c25.03,0,39.39-15.03,39.39-41.22v-119.87h-495.11v-16.45h495.11v-52.92h18.26M2236.8-231.21h-20.26v52.92h-495.11v18.45h495.11V-40.97c0,27.22-15.12,40.22-38.41,40.22-.33,0-.65-.03-.98-.03v18.77c.33,0,.65.02.98.02,34.78,0,58.67-19.66,58.67-58.97v-190.24h0Z"/></g><g id="uuid-46ef0fdd-017d-4711-9984-aea33f0cc37c"><path class="uuid-8f61de0e-8f95-45c1-be4f-7ca1ca8925ae" d="M2097.59-.66v-52.92h-20.26v190.24c0,39.31,23.89,58.97,58.67,58.97.33,0,.65-.01.98-.02v-18.77c-.33,0-.65.03-.98.03-23.29,0-38.41-13-38.41-40.22V17.79h495.11V-.66h-495.11Z"/><path class="uuid-8f61de0e-8f95-45c1-be4f-7ca1ca8925ae" d="M2651.11-230.21V-40.97c0,18.77-5.38,33.4-15.98,43.5-9.93,9.46-24.34,14.46-41.67,14.47V.25c25.03,0,39.39-15.03,39.39-41.22v-119.87h-495.11v-16.45h495.11v-52.92h18.26M2652.11-231.21h-20.26v52.92h-495.11v18.45h495.11V-40.97c0,27.22-15.12,40.22-38.41,40.22-.33,0-.65-.03-.98-.03v18.77c.33,0,.65.02.98.02,34.78,0,58.67-19.66,58.67-58.97v-190.24h0Z"/></g><g id="uuid-42abedf5-2612-47fb-a3d9-db0bdab4b338"><path class="uuid-8f61de0e-8f95-45c1-be4f-7ca1ca8925ae" d="M-394.29,332.98v-52.92h-20.26v190.24c0,39.31,23.89,58.97,58.67,58.97.33,0,.65-.01.98-.02v-18.77c-.33,0-.65.03-.98.03-23.29,0-38.41-13-38.41-40.22v-118.87H100.82v-18.45h-495.11Z"/><path class="uuid-8f61de0e-8f95-45c1-be4f-7ca1ca8925ae" d="M-394.29,688.4v-52.92h-20.26v190.24c0,39.31,23.89,58.97,58.67,58.97.33,0,.65-.01.98-.02v-18.77c-.33,0-.65.03-.98.03-23.29,0-38.41-13-38.41-40.22v-118.87H100.82v-18.45h-495.11Z"/><path class="uuid-8f61de0e-8f95-45c1-be4f-7ca1ca8925ae" d="M159.24,121.87v189.24c0,18.77-5.38,33.4-15.98,43.5-9.93,9.46-24.34,14.46-41.67,14.47v-16.75c25.03,0,39.39-15.03,39.39-41.22v-119.87h-495.11v-16.45H140.97v-52.92h18.26M160.24,120.87h-20.26v52.92h-495.11v18.45H139.97v118.87c0,27.22-15.12,40.22-38.41,40.22-.33,0-.65-.03-.98-.03v18.77c.33,0,.65.02.98.02,34.78,0,58.67-19.66,58.67-58.97V120.87h0Z"/><path class="uuid-8f61de0e-8f95-45c1-be4f-7ca1ca8925ae" d="M159.24,458.85v189.24c0,18.77-5.38,33.4-15.98,43.5-9.93,9.46-24.34,14.46-41.67,14.47v-16.75c25.03,0,39.39-15.03,39.39-41.22v-119.87h-495.11v-16.45H140.97v-52.92h18.26M160.24,457.85h-20.26v52.92h-495.11v18.45H139.97v118.87c0,27.22-15.12,40.22-38.41,40.22-.33,0-.65-.03-.98-.03v18.77c.33,0,.65.02.98.02,34.78,0,58.67-19.66,58.67-58.97v-190.24h0Z"/></g><g id="uuid-ccd4ff15-a4e6-4f08-a3ee-1d649c5f4516"><path class="uuid-8f61de0e-8f95-45c1-be4f-7ca1ca8925ae" d="M21.02,332.98v-52.92H.76v190.24c0,39.31,23.89,58.97,58.67,58.97.33,0,.65-.01.98-.02v-18.77c-.33,0-.65.03-.98.03-23.29,0-38.41-13-38.41-40.22v-118.87h495.11v-18.45H21.02Z"/><path class="uuid-8f61de0e-8f95-45c1-be4f-7ca1ca8925ae" d="M21.02,688.4v-52.92H.76v190.24c0,39.31,23.89,58.97,58.67,58.97.33,0,.65-.01.98-.02v-18.77c-.33,0-.65.03-.98.03-23.29,0-38.41-13-38.41-40.22v-118.87h495.11v-18.45H21.02Z"/><path class="uuid-8f61de0e-8f95-45c1-be4f-7ca1ca8925ae" d="M574.55,121.87v189.24c0,18.77-5.38,33.4-15.98,43.5-9.93,9.46-24.34,14.46-41.67,14.47v-16.75c25.03,0,39.39-15.03,39.39-41.22v-119.87H61.18v-16.45h495.11v-52.92h18.26M575.55,120.87h-20.26v52.92H60.18v18.45h495.11v118.87c0,27.22-15.12,40.22-38.41,40.22-.33,0-.65-.03-.98-.03v18.77c.33,0,.65.02.98.02,34.78,0,58.67-19.66,58.67-58.97V120.87h0Z"/><path class="uuid-8f61de0e-8f95-45c1-be4f-7ca1ca8925ae" d="M574.55,458.85v189.24c0,18.77-5.38,33.4-15.98,43.5-9.93,9.46-24.34,14.46-41.67,14.47v-16.75c25.03,0,39.39-15.03,39.39-41.22v-119.87H61.18v-16.45h495.11v-52.92h18.26M575.55,457.85h-20.26v52.92H60.18v18.45h495.11v118.87c0,27.22-15.12,40.22-38.41,40.22-.33,0-.65-.03-.98-.03v18.77c.33,0,.65.02.98.02,34.78,0,58.67-19.66,58.67-58.97v-190.24h0Z"/></g><g id="uuid-de4120fa-3516-4cf5-93b7-5da9a675f9d7"><path class="uuid-8f61de0e-8f95-45c1-be4f-7ca1ca8925ae" d="M436.34,332.98v-52.92h-20.26v190.24c0,39.31,23.89,58.97,58.67,58.97.33,0,.65-.01.98-.02v-18.77c-.33,0-.65.03-.98.03-23.29,0-38.41-13-38.41-40.22v-118.87h495.11v-18.45h-495.11Z"/><path class="uuid-8f61de0e-8f95-45c1-be4f-7ca1ca8925ae" d="M436.34,688.4v-52.92h-20.26v190.24c0,39.31,23.89,58.97,58.67,58.97.33,0,.65-.01.98-.02v-18.77c-.33,0-.65.03-.98.03-23.29,0-38.41-13-38.41-40.22v-118.87h495.11v-18.45h-495.11Z"/><path class="uuid-8f61de0e-8f95-45c1-be4f-7ca1ca8925ae" d="M989.86,121.87v189.24c0,18.77-5.38,33.4-15.98,43.5-9.93,9.46-24.34,14.46-41.67,14.47v-16.75c25.03,0,39.39-15.03,39.39-41.22v-119.87h-495.11v-16.45h495.11v-52.92h18.26M990.86,120.87h-20.26v52.92h-495.11v18.45h495.11v118.87c0,27.22-15.12,40.22-38.41,40.22-.33,0-.65-.03-.98-.03v18.77c.33,0,.65.02.98.02,34.78,0,58.67-19.66,58.67-58.97V120.87h0Z"/><path class="uuid-8f61de0e-8f95-45c1-be4f-7ca1ca8925ae" d="M989.86,458.85v189.24c0,18.77-5.38,33.4-15.98,43.5-9.93,9.46-24.34,14.46-41.67,14.47v-16.75c25.03,0,39.39-15.03,39.39-41.22v-119.87h-495.11v-16.45h495.11v-52.92h18.26M990.86,457.85h-20.26v52.92h-495.11v18.45h495.11v118.87c0,27.22-15.12,40.22-38.41,40.22-.33,0-.65-.03-.98-.03v18.77c.33,0,.65.02.98.02,34.78,0,58.67-19.66,58.67-58.97v-190.24h0Z"/></g><g id="uuid-a8a1759d-f29e-43d1-9634-4974830dc8cb"><path class="uuid-8f61de0e-8f95-45c1-be4f-7ca1ca8925ae" d="M851.65,332.98v-52.92h-20.26v190.24c0,39.31,23.89,58.97,58.67,58.97.33,0,.65-.01.98-.02v-18.77c-.33,0-.65.03-.98.03-23.29,0-38.41-13-38.41-40.22v-118.87h495.11v-18.45h-495.11Z"/><path class="uuid-8f61de0e-8f95-45c1-be4f-7ca1ca8925ae" d="M851.65,688.4v-52.92h-20.26v190.24c0,39.31,23.89,58.97,58.67,58.97.33,0,.65-.01.98-.02v-18.77c-.33,0-.65.03-.98.03-23.29,0-38.41-13-38.41-40.22v-118.87h495.11v-18.45h-495.11Z"/><path class="uuid-8f61de0e-8f95-45c1-be4f-7ca1ca8925ae" d="M1405.17,121.87v189.24c0,18.77-5.38,33.4-15.98,43.5-9.93,9.46-24.34,14.46-41.67,14.47v-16.75c25.03,0,39.39-15.03,39.39-41.22v-119.87h-495.11v-16.45h495.11v-52.92h18.26M1406.17,120.87h-20.26v52.92h-495.11v18.45h495.11v118.87c0,27.22-15.12,40.22-38.41,40.22-.33,0-.65-.03-.98-.03v18.77c.33,0,.65.02.98.02,34.78,0,58.67-19.66,58.67-58.97V120.87h0Z"/><path class="uuid-8f61de0e-8f95-45c1-be4f-7ca1ca8925ae" d="M1405.17,458.85v189.24c0,18.77-5.38,33.4-15.98,43.5-9.93,9.46-24.34,14.46-41.67,14.47v-16.75c25.03,0,39.39-15.03,39.39-41.22v-119.87h-495.11v-16.45h495.11v-52.92h18.26M1406.17,457.85h-20.26v52.92h-495.11v18.45h495.11v118.87c0,27.22-15.12,40.22-38.41,40.22-.33,0-.65-.03-.98-.03v18.77c.33,0,.65.02.98.02,34.78,0,58.67-19.66,58.67-58.97v-190.24h0Z"/></g><g id="uuid-95197d8c-ca80-49ec-886f-16858c3cc824"><path class="uuid-8f61de0e-8f95-45c1-be4f-7ca1ca8925ae" d="M1266.96,332.98v-52.92h-20.26v190.24c0,39.31,23.89,58.97,58.67,58.97.33,0,.65-.01.98-.02v-18.77c-.33,0-.65.03-.98.03-23.29,0-38.41-13-38.41-40.22v-118.87h495.11v-18.45h-495.11Z"/><path class="uuid-8f61de0e-8f95-45c1-be4f-7ca1ca8925ae" d="M1266.96,688.4v-52.92h-20.26v190.24c0,39.31,23.89,58.97,58.67,58.97.33,0,.65-.01.98-.02v-18.77c-.33,0-.65.03-.98.03-23.29,0-38.41-13-38.41-40.22v-118.87h495.11v-18.45h-495.11Z"/><path class="uuid-8f61de0e-8f95-45c1-be4f-7ca1ca8925ae" d="M1820.49,121.87v189.24c0,18.77-5.38,33.4-15.98,43.5-9.93,9.46-24.34,14.46-41.67,14.47v-16.75c25.03,0,39.39-15.03,39.39-41.22v-119.87h-495.11v-16.45h495.11v-52.92h18.26M1821.49,120.87h-20.26v52.92h-495.11v18.45h495.11v118.87c0,27.22-15.12,40.22-38.41,40.22-.33,0-.65-.03-.98-.03v18.77c.33,0,.65.02.98.02,34.78,0,58.67-19.66,58.67-58.97V120.87h0Z"/><path class="uuid-8f61de0e-8f95-45c1-be4f-7ca1ca8925ae" d="M1820.49,458.85v189.24c0,18.77-5.38,33.4-15.98,43.5-9.93,9.46-24.34,14.46-41.67,14.47v-16.75c25.03,0,39.39-15.03,39.39-41.22v-119.87h-495.11v-16.45h495.11v-52.92h18.26M1821.49,457.85h-20.26v52.92h-495.11v18.45h495.11v118.87c0,27.22-15.12,40.22-38.41,40.22-.33,0-.65-.03-.98-.03v18.77c.33,0,.65.02.98.02,34.78,0,58.67-19.66,58.67-58.97v-190.24h0Z"/></g><g id="uuid-4ce25497-664d-4694-a06e-d07d10111b36"><path class="uuid-8f61de0e-8f95-45c1-be4f-7ca1ca8925ae" d="M1682.27,332.98v-52.92h-20.26v190.24c0,39.31,23.89,58.97,58.67,58.97.33,0,.65-.01.98-.02v-18.77c-.33,0-.65.03-.98.03-23.29,0-38.41-13-38.41-40.22v-118.87h495.11v-18.45h-495.11Z"/><path class="uuid-8f61de0e-8f95-45c1-be4f-7ca1ca8925ae" d="M1682.27,688.4v-52.92h-20.26v190.24c0,39.31,23.89,58.97,58.67,58.97.33,0,.65-.01.98-.02v-18.77c-.33,0-.65.03-.98.03-23.29,0-38.41-13-38.41-40.22v-118.87h495.11v-18.45h-495.11Z"/><path class="uuid-8f61de0e-8f95-45c1-be4f-7ca1ca8925ae" d="M2235.8,121.87v189.24c0,18.77-5.38,33.4-15.98,43.5-9.93,9.46-24.34,14.46-41.67,14.47v-16.75c25.03,0,39.39-15.03,39.39-41.22v-119.87h-495.11v-16.45h495.11v-52.92h18.26M2236.8,120.87h-20.26v52.92h-495.11v18.45h495.11v118.87c0,27.22-15.12,40.22-38.41,40.22-.33,0-.65-.03-.98-.03v18.77c.33,0,.65.02.98.02,34.78,0,58.67-19.66,58.67-58.97V120.87h0Z"/><path class="uuid-8f61de0e-8f95-45c1-be4f-7ca1ca8925ae" d="M2235.8,458.85v189.24c0,18.77-5.38,33.4-15.98,43.5-9.93,9.46-24.34,14.46-41.67,14.47v-16.75c25.03,0,39.39-15.03,39.39-41.22v-119.87h-495.11v-16.45h495.11v-52.92h18.26M2236.8,457.85h-20.26v52.92h-495.11v18.45h495.11v118.87c0,27.22-15.12,40.22-38.41,40.22-.33,0-.65-.03-.98-.03v18.77c.33,0,.65.02.98.02,34.78,0,58.67-19.66,58.67-58.97v-190.24h0Z"/></g><g id="uuid-2776d679-acf8-46e8-80e9-e02802fa1e26"><path class="uuid-8f61de0e-8f95-45c1-be4f-7ca1ca8925ae" d="M2097.59,332.98v-52.92h-20.26v190.24c0,39.31,23.89,58.97,58.67,58.97.33,0,.65-.01.98-.02v-18.77c-.33,0-.65.03-.98.03-23.29,0-38.41-13-38.41-40.22v-118.87h495.11v-18.45h-495.11Z"/><path class="uuid-8f61de0e-8f95-45c1-be4f-7ca1ca8925ae" d="M2097.59,688.4v-52.92h-20.26v190.24c0,39.31,23.89,58.97,58.67,58.97.33,0,.65-.01.98-.02v-18.77c-.33,0-.65.03-.98.03-23.29,0-38.41-13-38.41-40.22v-118.87h495.11v-18.45h-495.11Z"/><path class="uuid-8f61de0e-8f95-45c1-be4f-7ca1ca8925ae" d="M2651.11,121.87v189.24c0,18.77-5.38,33.4-15.98,43.5-9.93,9.46-24.34,14.46-41.67,14.47v-16.75c25.03,0,39.39-15.03,39.39-41.22v-119.87h-495.11v-16.45h495.11v-52.92h18.26M2652.11,120.87h-20.26v52.92h-495.11v18.45h495.11v118.87c0,27.22-15.12,40.22-38.41,40.22-.33,0-.65-.03-.98-.03v18.77c.33,0,.65.02.98.02,34.78,0,58.67-19.66,58.67-58.97V120.87h0Z"/><path class="uuid-8f61de0e-8f95-45c1-be4f-7ca1ca8925ae" d="M2651.11,458.85v189.24c0,18.77-5.38,33.4-15.98,43.5-9.93,9.46-24.34,14.46-41.67,14.47v-16.75c25.03,0,39.39-15.03,39.39-41.22v-119.87h-495.11v-16.45h495.11v-52.92h18.26M2652.11,457.85h-20.26v52.92h-495.11v18.45h495.11v118.87c0,27.22-15.12,40.22-38.41,40.22-.33,0-.65-.03-.98-.03v18.77c.33,0,.65.02.98.02,34.78,0,58.67-19.66,58.67-58.97v-190.24h0Z"/></g><g id="uuid-5a17f060-d355-493c-9fe8-f8a09116871c"><path class="uuid-8f61de0e-8f95-45c1-be4f-7ca1ca8925ae" d="M-394.29,1022.03v-52.92h-20.26v190.24c0,39.31,23.89,58.97,58.67,58.97.33,0,.65-.01.98-.02v-18.77c-.33,0-.65.03-.98.03-23.29,0-38.41-13-38.41-40.22v-118.87H100.82v-18.45h-495.11Z"/><path class="uuid-8f61de0e-8f95-45c1-be4f-7ca1ca8925ae" d="M159.24,810.92v189.24c0,18.77-5.38,33.4-15.98,43.5-9.93,9.46-24.34,14.46-41.67,14.47v-16.75c25.03,0,39.39-15.03,39.39-41.22v-119.87h-495.11v-16.45H140.97v-52.92h18.26M160.24,809.92h-20.26v52.92h-495.11v18.45H139.97v118.87c0,27.22-15.12,40.22-38.41,40.22-.33,0-.65-.03-.98-.03v18.77c.33,0,.65.02.98.02,34.78,0,58.67-19.66,58.67-58.97v-190.24h0Z"/></g><g id="uuid-1725ca4d-578f-4792-816d-1674bbf8e2f2"><path class="uuid-8f61de0e-8f95-45c1-be4f-7ca1ca8925ae" d="M21.02,1022.03v-52.92H.76v190.24c0,39.31,23.89,58.97,58.67,58.97.33,0,.65-.01.98-.02v-18.77c-.33,0-.65.03-.98.03-23.29,0-38.41-13-38.41-40.22v-118.87h495.11v-18.45H21.02Z"/><path class="uuid-8f61de0e-8f95-45c1-be4f-7ca1ca8925ae" d="M574.55,810.92v189.24c0,18.77-5.38,33.4-15.98,43.5-9.93,9.46-24.34,14.46-41.67,14.47v-16.75c25.03,0,39.39-15.03,39.39-41.22v-119.87H61.18v-16.45h495.11v-52.92h18.26M575.55,809.92h-20.26v52.92H60.18v18.45h495.11v118.87c0,27.22-15.12,40.22-38.41,40.22-.33,0-.65-.03-.98-.03v18.77c.33,0,.65.02.98.02,34.78,0,58.67-19.66,58.67-58.97v-190.24h0Z"/></g><g id="uuid-b25f10c7-36a3-4c07-a0ee-911dfda9ed60"><path class="uuid-8f61de0e-8f95-45c1-be4f-7ca1ca8925ae" d="M436.34,1022.03v-52.92h-20.26v190.24c0,39.31,23.89,58.97,58.67,58.97.33,0,.65-.01.98-.02v-18.77c-.33,0-.65.03-.98.03-23.29,0-38.41-13-38.41-40.22v-118.87h495.11v-18.45h-495.11Z"/><path class="uuid-8f61de0e-8f95-45c1-be4f-7ca1ca8925ae" d="M989.86,810.92v189.24c0,18.77-5.38,33.4-15.98,43.5-9.93,9.46-24.34,14.46-41.67,14.47v-16.75c25.03,0,39.39-15.03,39.39-41.22v-119.87h-495.11v-16.45h495.11v-52.92h18.26M990.86,809.92h-20.26v52.92h-495.11v18.45h495.11v118.87c0,27.22-15.12,40.22-38.41,40.22-.33,0-.65-.03-.98-.03v18.77c.33,0,.65.02.98.02,34.78,0,58.67-19.66,58.67-58.97v-190.24h0Z"/></g><g id="uuid-63a70f33-dfc9-4559-95eb-df0b84e1f123"><path class="uuid-8f61de0e-8f95-45c1-be4f-7ca1ca8925ae" d="M851.65,1022.03v-52.92h-20.26v190.24c0,39.31,23.89,58.97,58.67,58.97.33,0,.65-.01.98-.02v-18.77c-.33,0-.65.03-.98.03-23.29,0-38.41-13-38.41-40.22v-118.87h495.11v-18.45h-495.11Z"/><path class="uuid-8f61de0e-8f95-45c1-be4f-7ca1ca8925ae" d="M1405.17,810.92v189.24c0,18.77-5.38,33.4-15.98,43.5-9.93,9.46-24.34,14.46-41.67,14.47v-16.75c25.03,0,39.39-15.03,39.39-41.22v-119.87h-495.11v-16.45h495.11v-52.92h18.26M1406.17,809.92h-20.26v52.92h-495.11v18.45h495.11v118.87c0,27.22-15.12,40.22-38.41,40.22-.33,0-.65-.03-.98-.03v18.77c.33,0,.65.02.98.02,34.78,0,58.67-19.66,58.67-58.97v-190.24h0Z"/></g><g id="uuid-b8eed201-be55-4072-9152-9c8d1a15106d"><path class="uuid-8f61de0e-8f95-45c1-be4f-7ca1ca8925ae" d="M1266.96,1022.03v-52.92h-20.26v190.24c0,39.31,23.89,58.97,58.67,58.97.33,0,.65-.01.98-.02v-18.77c-.33,0-.65.03-.98.03-23.29,0-38.41-13-38.41-40.22v-118.87h495.11v-18.45h-495.11Z"/><path class="uuid-8f61de0e-8f95-45c1-be4f-7ca1ca8925ae" d="M1820.49,810.92v189.24c0,18.77-5.38,33.4-15.98,43.5-9.93,9.46-24.34,14.46-41.67,14.47v-16.75c25.03,0,39.39-15.03,39.39-41.22v-119.87h-495.11v-16.45h495.11v-52.92h18.26M1821.49,809.92h-20.26v52.92h-495.11v18.45h495.11v118.87c0,27.22-15.12,40.22-38.41,40.22-.33,0-.65-.03-.98-.03v18.77c.33,0,.65.02.98.02,34.78,0,58.67-19.66,58.67-58.97v-190.24h0Z"/></g><g id="uuid-faa13946-9cd2-4d44-a79b-1d97deb5f101"><path class="uuid-8f61de0e-8f95-45c1-be4f-7ca1ca8925ae" d="M1682.27,1022.03v-52.92h-20.26v190.24c0,39.31,23.89,58.97,58.67,58.97.33,0,.65-.01.98-.02v-18.77c-.33,0-.65.03-.98.03-23.29,0-38.41-13-38.41-40.22v-118.87h495.11v-18.45h-495.11Z"/><path class="uuid-8f61de0e-8f95-45c1-be4f-7ca1ca8925ae" d="M2235.8,810.92v189.24c0,18.77-5.38,33.4-15.98,43.5-9.93,9.46-24.34,14.46-41.67,14.47v-16.75c25.03,0,39.39-15.03,39.39-41.22v-119.87h-495.11v-16.45h495.11v-52.92h18.26M2236.8,809.92h-20.26v52.92h-495.11v18.45h495.11v118.87c0,27.22-15.12,40.22-38.41,40.22-.33,0-.65-.03-.98-.03v18.77c.33,0,.65.02.98.02,34.78,0,58.67-19.66,58.67-58.97v-190.24h0Z"/></g><g id="uuid-66fc2045-7ce2-4b9a-8b3f-9bb2be00f39d"><path class="uuid-8f61de0e-8f95-45c1-be4f-7ca1ca8925ae" d="M2097.59,1022.03v-52.92h-20.26v190.24c0,39.31,23.89,58.97,58.67,58.97.33,0,.65-.01.98-.02v-18.77c-.33,0-.65.03-.98.03-23.29,0-38.41-13-38.41-40.22v-118.87h495.11v-18.45h-495.11Z"/><path class="uuid-8f61de0e-8f95-45c1-be4f-7ca1ca8925ae" d="M2651.11,810.92v189.24c0,18.77-5.38,33.4-15.98,43.5-9.93,9.46-24.34,14.46-41.67,14.47v-16.75c25.03,0,39.39-15.03,39.39-41.22v-119.87h-495.11v-16.45h495.11v-52.92h18.26M2652.11,809.92h-20.26v52.92h-495.11v18.45h495.11v118.87c0,27.22-15.12,40.22-38.41,40.22-.33,0-.65-.03-.98-.03v18.77c.33,0,.65.02.98.02,34.78,0,58.67-19.66,58.67-58.97v-190.24h0Z"/></g></g></g></svg>