<?xml version="1.0" encoding="UTF-8"?><svg id="uuid-6b9d1cef-df00-4e87-ad65-3f477f982a98" xmlns="http://www.w3.org/2000/svg" xmlns:xlink="http://www.w3.org/1999/xlink" viewBox="0 0 2494.65 1022.76"><defs><style>.uuid-7617ae1b-1d7b-4082-a69d-be5341cb1bcb{fill:none;}.uuid-06cd6711-7edf-4333-b301-5464caddb1c5{clip-path:url(#uuid-f62a0ad3-8b41-4117-aefb-8ece401551f0);}.uuid-f8b82c2e-cce3-4049-9984-b36eb0b9ff6e{fill:#a2b861;}</style><clipPath id="uuid-f62a0ad3-8b41-4117-aefb-8ece401551f0"><rect class="uuid-7617ae1b-1d7b-4082-a69d-be5341cb1bcb" width="2494.65" height="1022.76"/></clipPath></defs><g id="uuid-e5efe1d5-13f3-467a-abcf-cc3e518d7347"><g class="uuid-06cd6711-7edf-4333-b301-5464caddb1c5"><g id="uuid-d2ac0858-d63d-49ba-8ab1-15e2bb14b7bf"><path class="uuid-f8b82c2e-cce3-4049-9984-b36eb0b9ff6e" d="M-394.79-.66v-52.92h-20.26v190.24c0,39.31,23.89,58.97,58.67,58.97.33,0,.65-.01.98-.02v-18.77c-.33,0-.65.03-.98.03-23.29,0-38.41-13-38.41-40.22V17.79H100.32V-.66h-495.11Z"/><path class="uuid-f8b82c2e-cce3-4049-9984-b36eb0b9ff6e" d="M158.74-230.21V-40.97c0,18.77-5.38,33.4-15.98,43.5-9.93,9.46-24.34,14.46-41.67,14.47V.25c25.03,0,39.39-15.03,39.39-41.22v-119.87h-495.11v-16.45H140.47v-52.92h18.26M159.74-231.21h-20.26v52.92h-495.11v18.45H139.47V-40.97C139.47-13.75,124.35-.75,101.07-.75c-.33,0-.65-.03-.98-.03v18.77c.33,0,.65.02.98.02,34.78,0,58.67-19.66,58.67-58.97v-190.24h0Z"/></g><g id="uuid-366dfba1-2d2e-4555-9c5b-df73acd6ef1b"><path class="uuid-f8b82c2e-cce3-4049-9984-b36eb0b9ff6e" d="M20.52-.66v-52.92H.26v190.24c0,39.31,23.89,58.97,58.67,58.97.33,0,.65-.01.98-.02v-18.77c-.33,0-.65.03-.98.03-23.29,0-38.41-13-38.41-40.22V17.79h495.11V-.66H20.52Z"/><path class="uuid-f8b82c2e-cce3-4049-9984-b36eb0b9ff6e" d="M574.05-230.21V-40.97c0,18.77-5.38,33.4-15.98,43.5-9.93,9.46-24.34,14.46-41.67,14.47V.25c25.03,0,39.39-15.03,39.39-41.22v-119.87H60.68v-16.45h495.11v-52.92h18.26M575.05-231.21h-20.26v52.92H59.68v18.45h495.11V-40.97c0,27.22-15.12,40.22-38.41,40.22-.33,0-.65-.03-.98-.03v18.77c.33,0,.65.02.98.02,34.78,0,58.67-19.66,58.67-58.97v-190.24h0Z"/></g><g id="uuid-10d33047-7538-4de7-87ae-586d7c89871d"><path class="uuid-f8b82c2e-cce3-4049-9984-b36eb0b9ff6e" d="M435.84-.66v-52.92h-20.26v190.24c0,39.31,23.89,58.97,58.67,58.97.33,0,.65-.01.98-.02v-18.77c-.33,0-.65.03-.98.03-23.29,0-38.41-13-38.41-40.22V17.79h495.11V-.66h-495.11Z"/><path class="uuid-f8b82c2e-cce3-4049-9984-b36eb0b9ff6e" d="M989.36-230.21V-40.97c0,18.77-5.38,33.4-15.98,43.5-9.93,9.46-24.34,14.46-41.67,14.47V.25c25.03,0,39.39-15.03,39.39-41.22v-119.87h-495.11v-16.45h495.11v-52.92h18.26M990.36-231.21h-20.26v52.92h-495.11v18.45h495.11V-40.97c0,27.22-15.12,40.22-38.41,40.22-.33,0-.65-.03-.98-.03v18.77c.33,0,.65.02.98.02,34.78,0,58.67-19.66,58.67-58.97v-190.24h0Z"/></g><g id="uuid-30dfd8ee-fb09-498e-9586-51ca34989fe6"><path class="uuid-f8b82c2e-cce3-4049-9984-b36eb0b9ff6e" d="M851.15-.66v-52.92h-20.26v190.24c0,39.31,23.89,58.97,58.67,58.97.33,0,.65-.01.98-.02v-18.77c-.33,0-.65.03-.98.03-23.29,0-38.41-13-38.41-40.22V17.79h495.11V-.66h-495.11Z"/><path class="uuid-f8b82c2e-cce3-4049-9984-b36eb0b9ff6e" d="M1404.67-230.21V-40.97c0,18.77-5.38,33.4-15.98,43.5-9.93,9.46-24.34,14.46-41.67,14.47V.25c25.03,0,39.39-15.03,39.39-41.22v-119.87h-495.11v-16.45h495.11v-52.92h18.26M1405.67-231.21h-20.26v52.92h-495.11v18.45h495.11V-40.97c0,27.22-15.12,40.22-38.41,40.22-.33,0-.65-.03-.98-.03v18.77c.33,0,.65.02.98.02,34.78,0,58.67-19.66,58.67-58.97v-190.24h0Z"/></g><g id="uuid-6e433277-61e0-41a7-b2d7-a6d9dacc494e"><path class="uuid-f8b82c2e-cce3-4049-9984-b36eb0b9ff6e" d="M1266.46-.66v-52.92h-20.26v190.24c0,39.31,23.89,58.97,58.67,58.97.33,0,.65-.01.98-.02v-18.77c-.33,0-.65.03-.98.03-23.29,0-38.41-13-38.41-40.22V17.79h495.11V-.66h-495.11Z"/><path class="uuid-f8b82c2e-cce3-4049-9984-b36eb0b9ff6e" d="M1819.99-230.21V-40.97c0,18.77-5.38,33.4-15.98,43.5-9.93,9.46-24.34,14.46-41.67,14.47V.25c25.03,0,39.39-15.03,39.39-41.22v-119.87h-495.11v-16.45h495.11v-52.92h18.26M1820.99-231.21h-20.26v52.92h-495.11v18.45h495.11V-40.97c0,27.22-15.12,40.22-38.41,40.22-.33,0-.65-.03-.98-.03v18.77c.33,0,.65.02.98.02,34.78,0,58.67-19.66,58.67-58.97v-190.24h0Z"/></g><g id="uuid-f76efd94-220b-479e-910c-ab1e5d6d6fad"><path class="uuid-f8b82c2e-cce3-4049-9984-b36eb0b9ff6e" d="M1681.77-.66v-52.92h-20.26v190.24c0,39.31,23.89,58.97,58.67,58.97.33,0,.65-.01.98-.02v-18.77c-.33,0-.65.03-.98.03-23.29,0-38.41-13-38.41-40.22V17.79h495.11V-.66h-495.11Z"/><path class="uuid-f8b82c2e-cce3-4049-9984-b36eb0b9ff6e" d="M2235.3-230.21V-40.97c0,18.77-5.38,33.4-15.98,43.5-9.93,9.46-24.34,14.46-41.67,14.47V.25c25.03,0,39.39-15.03,39.39-41.22v-119.87h-495.11v-16.45h495.11v-52.92h18.26M2236.3-231.21h-20.26v52.92h-495.11v18.45h495.11V-40.97c0,27.22-15.12,40.22-38.41,40.22-.33,0-.65-.03-.98-.03v18.77c.33,0,.65.02.98.02,34.78,0,58.67-19.66,58.67-58.97v-190.24h0Z"/></g><g id="uuid-9b374a73-e8cf-4dfe-95f9-217ce8aef85b"><path class="uuid-f8b82c2e-cce3-4049-9984-b36eb0b9ff6e" d="M2097.09-.66v-52.92h-20.26v190.24c0,39.31,23.89,58.97,58.67,58.97.33,0,.65-.01.98-.02v-18.77c-.33,0-.65.03-.98.03-23.29,0-38.41-13-38.41-40.22V17.79h495.11V-.66h-495.11Z"/><path class="uuid-f8b82c2e-cce3-4049-9984-b36eb0b9ff6e" d="M2650.61-230.21V-40.97c0,18.77-5.38,33.4-15.98,43.5-9.93,9.46-24.34,14.46-41.67,14.47V.25c25.03,0,39.39-15.03,39.39-41.22v-119.87h-495.11v-16.45h495.11v-52.92h18.26M2651.61-231.21h-20.26v52.92h-495.11v18.45h495.11V-40.97c0,27.22-15.12,40.22-38.41,40.22-.33,0-.65-.03-.98-.03v18.77c.33,0,.65.02.98.02,34.78,0,58.67-19.66,58.67-58.97v-190.24h0Z"/></g><g id="uuid-edd40eb9-c039-4534-bd26-57732dfa1e48"><path class="uuid-f8b82c2e-cce3-4049-9984-b36eb0b9ff6e" d="M-394.79,332.98v-52.92h-20.26v190.24c0,39.31,23.89,58.97,58.67,58.97.33,0,.65-.01.98-.02v-18.77c-.33,0-.65.03-.98.03-23.29,0-38.41-13-38.41-40.22v-118.87H100.32v-18.45h-495.11Z"/><path class="uuid-f8b82c2e-cce3-4049-9984-b36eb0b9ff6e" d="M-394.79,688.4v-52.92h-20.26v190.24c0,39.31,23.89,58.97,58.67,58.97.33,0,.65-.01.98-.02v-18.77c-.33,0-.65.03-.98.03-23.29,0-38.41-13-38.41-40.22v-118.87H100.32v-18.45h-495.11Z"/><path class="uuid-f8b82c2e-cce3-4049-9984-b36eb0b9ff6e" d="M158.74,121.87v189.24c0,18.77-5.38,33.4-15.98,43.5-9.93,9.46-24.34,14.46-41.67,14.47v-16.75c25.03,0,39.39-15.03,39.39-41.22v-119.87h-495.11v-16.45H140.47v-52.92h18.26M159.74,120.87h-20.26v52.92h-495.11v18.45H139.47v118.87c0,27.22-15.12,40.22-38.41,40.22-.33,0-.65-.03-.98-.03v18.77c.33,0,.65.02.98.02,34.78,0,58.67-19.66,58.67-58.97V120.87h0Z"/><path class="uuid-f8b82c2e-cce3-4049-9984-b36eb0b9ff6e" d="M158.74,458.85v189.24c0,18.77-5.38,33.4-15.98,43.5-9.93,9.46-24.34,14.46-41.67,14.47v-16.75c25.03,0,39.39-15.03,39.39-41.22v-119.87h-495.11v-16.45H140.47v-52.92h18.26M159.74,457.85h-20.26v52.92h-495.11v18.45H139.47v118.87c0,27.22-15.12,40.22-38.41,40.22-.33,0-.65-.03-.98-.03v18.77c.33,0,.65.02.98.02,34.78,0,58.67-19.66,58.67-58.97v-190.24h0Z"/></g><g id="uuid-00519c38-0bf3-43d3-ad99-3b46a265f9f5"><path class="uuid-f8b82c2e-cce3-4049-9984-b36eb0b9ff6e" d="M20.52,332.98v-52.92H.26v190.24c0,39.31,23.89,58.97,58.67,58.97.33,0,.65-.01.98-.02v-18.77c-.33,0-.65.03-.98.03-23.29,0-38.41-13-38.41-40.22v-118.87h495.11v-18.45H20.52Z"/><path class="uuid-f8b82c2e-cce3-4049-9984-b36eb0b9ff6e" d="M20.52,688.4v-52.92H.26v190.24c0,39.31,23.89,58.97,58.67,58.97.33,0,.65-.01.98-.02v-18.77c-.33,0-.65.03-.98.03-23.29,0-38.41-13-38.41-40.22v-118.87h495.11v-18.45H20.52Z"/><path class="uuid-f8b82c2e-cce3-4049-9984-b36eb0b9ff6e" d="M574.05,121.87v189.24c0,18.77-5.38,33.4-15.98,43.5-9.93,9.46-24.34,14.46-41.67,14.47v-16.75c25.03,0,39.39-15.03,39.39-41.22v-119.87H60.68v-16.45h495.11v-52.92h18.26M575.05,120.87h-20.26v52.92H59.68v18.45h495.11v118.87c0,27.22-15.12,40.22-38.41,40.22-.33,0-.65-.03-.98-.03v18.77c.33,0,.65.02.98.02,34.78,0,58.67-19.66,58.67-58.97V120.87h0Z"/><path class="uuid-f8b82c2e-cce3-4049-9984-b36eb0b9ff6e" d="M574.05,458.85v189.24c0,18.77-5.38,33.4-15.98,43.5-9.93,9.46-24.34,14.46-41.67,14.47v-16.75c25.03,0,39.39-15.03,39.39-41.22v-119.87H60.68v-16.45h495.11v-52.92h18.26M575.05,457.85h-20.26v52.92H59.68v18.45h495.11v118.87c0,27.22-15.12,40.22-38.41,40.22-.33,0-.65-.03-.98-.03v18.77c.33,0,.65.02.98.02,34.78,0,58.67-19.66,58.67-58.97v-190.24h0Z"/></g><g id="uuid-fffd69e7-c325-4c86-98a4-1e5e44c30ccc"><path class="uuid-f8b82c2e-cce3-4049-9984-b36eb0b9ff6e" d="M435.84,332.98v-52.92h-20.26v190.24c0,39.31,23.89,58.97,58.67,58.97.33,0,.65-.01.98-.02v-18.77c-.33,0-.65.03-.98.03-23.29,0-38.41-13-38.41-40.22v-118.87h495.11v-18.45h-495.11Z"/><path class="uuid-f8b82c2e-cce3-4049-9984-b36eb0b9ff6e" d="M435.84,688.4v-52.92h-20.26v190.24c0,39.31,23.89,58.97,58.67,58.97.33,0,.65-.01.98-.02v-18.77c-.33,0-.65.03-.98.03-23.29,0-38.41-13-38.41-40.22v-118.87h495.11v-18.45h-495.11Z"/><path class="uuid-f8b82c2e-cce3-4049-9984-b36eb0b9ff6e" d="M989.36,121.87v189.24c0,18.77-5.38,33.4-15.98,43.5-9.93,9.46-24.34,14.46-41.67,14.47v-16.75c25.03,0,39.39-15.03,39.39-41.22v-119.87h-495.11v-16.45h495.11v-52.92h18.26M990.36,120.87h-20.26v52.92h-495.11v18.45h495.11v118.87c0,27.22-15.12,40.22-38.41,40.22-.33,0-.65-.03-.98-.03v18.77c.33,0,.65.02.98.02,34.78,0,58.67-19.66,58.67-58.97V120.87h0Z"/><path class="uuid-f8b82c2e-cce3-4049-9984-b36eb0b9ff6e" d="M989.36,458.85v189.24c0,18.77-5.38,33.4-15.98,43.5-9.93,9.46-24.34,14.46-41.67,14.47v-16.75c25.03,0,39.39-15.03,39.39-41.22v-119.87h-495.11v-16.45h495.11v-52.92h18.26M990.36,457.85h-20.26v52.92h-495.11v18.45h495.11v118.87c0,27.22-15.12,40.22-38.41,40.22-.33,0-.65-.03-.98-.03v18.77c.33,0,.65.02.98.02,34.78,0,58.67-19.66,58.67-58.97v-190.24h0Z"/></g><g id="uuid-3260b963-f4bb-4eb2-b94f-de402f72589a"><path class="uuid-f8b82c2e-cce3-4049-9984-b36eb0b9ff6e" d="M851.15,332.98v-52.92h-20.26v190.24c0,39.31,23.89,58.97,58.67,58.97.33,0,.65-.01.98-.02v-18.77c-.33,0-.65.03-.98.03-23.29,0-38.41-13-38.41-40.22v-118.87h495.11v-18.45h-495.11Z"/><path class="uuid-f8b82c2e-cce3-4049-9984-b36eb0b9ff6e" d="M851.15,688.4v-52.92h-20.26v190.24c0,39.31,23.89,58.97,58.67,58.97.33,0,.65-.01.98-.02v-18.77c-.33,0-.65.03-.98.03-23.29,0-38.41-13-38.41-40.22v-118.87h495.11v-18.45h-495.11Z"/><path class="uuid-f8b82c2e-cce3-4049-9984-b36eb0b9ff6e" d="M1404.67,121.87v189.24c0,18.77-5.38,33.4-15.98,43.5-9.93,9.46-24.34,14.46-41.67,14.47v-16.75c25.03,0,39.39-15.03,39.39-41.22v-119.87h-495.11v-16.45h495.11v-52.92h18.26M1405.67,120.87h-20.26v52.92h-495.11v18.45h495.11v118.87c0,27.22-15.12,40.22-38.41,40.22-.33,0-.65-.03-.98-.03v18.77c.33,0,.65.02.98.02,34.78,0,58.67-19.66,58.67-58.97V120.87h0Z"/><path class="uuid-f8b82c2e-cce3-4049-9984-b36eb0b9ff6e" d="M1404.67,458.85v189.24c0,18.77-5.38,33.4-15.98,43.5-9.93,9.46-24.34,14.46-41.67,14.47v-16.75c25.03,0,39.39-15.03,39.39-41.22v-119.87h-495.11v-16.45h495.11v-52.92h18.26M1405.67,457.85h-20.26v52.92h-495.11v18.45h495.11v118.87c0,27.22-15.12,40.22-38.41,40.22-.33,0-.65-.03-.98-.03v18.77c.33,0,.65.02.98.02,34.78,0,58.67-19.66,58.67-58.97v-190.24h0Z"/></g><g id="uuid-e705a94b-d43a-4fa6-b153-6c05fb1cfc78"><path class="uuid-f8b82c2e-cce3-4049-9984-b36eb0b9ff6e" d="M1266.46,332.98v-52.92h-20.26v190.24c0,39.31,23.89,58.97,58.67,58.97.33,0,.65-.01.98-.02v-18.77c-.33,0-.65.03-.98.03-23.29,0-38.41-13-38.41-40.22v-118.87h495.11v-18.45h-495.11Z"/><path class="uuid-f8b82c2e-cce3-4049-9984-b36eb0b9ff6e" d="M1266.46,688.4v-52.92h-20.26v190.24c0,39.31,23.89,58.97,58.67,58.97.33,0,.65-.01.98-.02v-18.77c-.33,0-.65.03-.98.03-23.29,0-38.41-13-38.41-40.22v-118.87h495.11v-18.45h-495.11Z"/><path class="uuid-f8b82c2e-cce3-4049-9984-b36eb0b9ff6e" d="M1819.99,121.87v189.24c0,18.77-5.38,33.4-15.98,43.5-9.93,9.46-24.34,14.46-41.67,14.47v-16.75c25.03,0,39.39-15.03,39.39-41.22v-119.87h-495.11v-16.45h495.11v-52.92h18.26M1820.99,120.87h-20.26v52.92h-495.11v18.45h495.11v118.87c0,27.22-15.12,40.22-38.41,40.22-.33,0-.65-.03-.98-.03v18.77c.33,0,.65.02.98.02,34.78,0,58.67-19.66,58.67-58.97V120.87h0Z"/><path class="uuid-f8b82c2e-cce3-4049-9984-b36eb0b9ff6e" d="M1819.99,458.85v189.24c0,18.77-5.38,33.4-15.98,43.5-9.93,9.46-24.34,14.46-41.67,14.47v-16.75c25.03,0,39.39-15.03,39.39-41.22v-119.87h-495.11v-16.45h495.11v-52.92h18.26M1820.99,457.85h-20.26v52.92h-495.11v18.45h495.11v118.87c0,27.22-15.12,40.22-38.41,40.22-.33,0-.65-.03-.98-.03v18.77c.33,0,.65.02.98.02,34.78,0,58.67-19.66,58.67-58.97v-190.24h0Z"/></g><g id="uuid-9485e6e9-01ea-454b-95e4-24d32b2f7379"><path class="uuid-f8b82c2e-cce3-4049-9984-b36eb0b9ff6e" d="M1681.77,332.98v-52.92h-20.26v190.24c0,39.31,23.89,58.97,58.67,58.97.33,0,.65-.01.98-.02v-18.77c-.33,0-.65.03-.98.03-23.29,0-38.41-13-38.41-40.22v-118.87h495.11v-18.45h-495.11Z"/><path class="uuid-f8b82c2e-cce3-4049-9984-b36eb0b9ff6e" d="M1681.77,688.4v-52.92h-20.26v190.24c0,39.31,23.89,58.97,58.67,58.97.33,0,.65-.01.98-.02v-18.77c-.33,0-.65.03-.98.03-23.29,0-38.41-13-38.41-40.22v-118.87h495.11v-18.45h-495.11Z"/><path class="uuid-f8b82c2e-cce3-4049-9984-b36eb0b9ff6e" d="M2235.3,121.87v189.24c0,18.77-5.38,33.4-15.98,43.5-9.93,9.46-24.34,14.46-41.67,14.47v-16.75c25.03,0,39.39-15.03,39.39-41.22v-119.87h-495.11v-16.45h495.11v-52.92h18.26M2236.3,120.87h-20.26v52.92h-495.11v18.45h495.11v118.87c0,27.22-15.12,40.22-38.41,40.22-.33,0-.65-.03-.98-.03v18.77c.33,0,.65.02.98.02,34.78,0,58.67-19.66,58.67-58.97V120.87h0Z"/><path class="uuid-f8b82c2e-cce3-4049-9984-b36eb0b9ff6e" d="M2235.3,458.85v189.24c0,18.77-5.38,33.4-15.98,43.5-9.93,9.46-24.34,14.46-41.67,14.47v-16.75c25.03,0,39.39-15.03,39.39-41.22v-119.87h-495.11v-16.45h495.11v-52.92h18.26M2236.3,457.85h-20.26v52.92h-495.11v18.45h495.11v118.87c0,27.22-15.12,40.22-38.41,40.22-.33,0-.65-.03-.98-.03v18.77c.33,0,.65.02.98.02,34.78,0,58.67-19.66,58.67-58.97v-190.24h0Z"/></g><g id="uuid-e0bd931d-7222-40ea-8ca9-5415d9d31d79"><path class="uuid-f8b82c2e-cce3-4049-9984-b36eb0b9ff6e" d="M2097.09,332.98v-52.92h-20.26v190.24c0,39.31,23.89,58.97,58.67,58.97.33,0,.65-.01.98-.02v-18.77c-.33,0-.65.03-.98.03-23.29,0-38.41-13-38.41-40.22v-118.87h495.11v-18.45h-495.11Z"/><path class="uuid-f8b82c2e-cce3-4049-9984-b36eb0b9ff6e" d="M2097.09,688.4v-52.92h-20.26v190.24c0,39.31,23.89,58.97,58.67,58.97.33,0,.65-.01.98-.02v-18.77c-.33,0-.65.03-.98.03-23.29,0-38.41-13-38.41-40.22v-118.87h495.11v-18.45h-495.11Z"/><path class="uuid-f8b82c2e-cce3-4049-9984-b36eb0b9ff6e" d="M2650.61,121.87v189.24c0,18.77-5.38,33.4-15.98,43.5-9.93,9.46-24.34,14.46-41.67,14.47v-16.75c25.03,0,39.39-15.03,39.39-41.22v-119.87h-495.11v-16.45h495.11v-52.92h18.26M2651.61,120.87h-20.26v52.92h-495.11v18.45h495.11v118.87c0,27.22-15.12,40.22-38.41,40.22-.33,0-.65-.03-.98-.03v18.77c.33,0,.65.02.98.02,34.78,0,58.67-19.66,58.67-58.97V120.87h0Z"/><path class="uuid-f8b82c2e-cce3-4049-9984-b36eb0b9ff6e" d="M2650.61,458.85v189.24c0,18.77-5.38,33.4-15.98,43.5-9.93,9.46-24.34,14.46-41.67,14.47v-16.75c25.03,0,39.39-15.03,39.39-41.22v-119.87h-495.11v-16.45h495.11v-52.92h18.26M2651.61,457.85h-20.26v52.92h-495.11v18.45h495.11v118.87c0,27.22-15.12,40.22-38.41,40.22-.33,0-.65-.03-.98-.03v18.77c.33,0,.65.02.98.02,34.78,0,58.67-19.66,58.67-58.97v-190.24h0Z"/></g><g id="uuid-39390f62-ba1b-46ec-8813-f4473cf6d977"><path class="uuid-f8b82c2e-cce3-4049-9984-b36eb0b9ff6e" d="M-394.79,1022.03v-52.92h-20.26v190.24c0,39.31,23.89,58.97,58.67,58.97.33,0,.65-.01.98-.02v-18.77c-.33,0-.65.03-.98.03-23.29,0-38.41-13-38.41-40.22v-118.87H100.32v-18.45h-495.11Z"/><path class="uuid-f8b82c2e-cce3-4049-9984-b36eb0b9ff6e" d="M158.74,810.92v189.24c0,18.77-5.38,33.4-15.98,43.5-9.93,9.46-24.34,14.46-41.67,14.47v-16.75c25.03,0,39.39-15.03,39.39-41.22v-119.87h-495.11v-16.45H140.47v-52.92h18.26M159.74,809.92h-20.26v52.92h-495.11v18.45H139.47v118.87c0,27.22-15.12,40.22-38.41,40.22-.33,0-.65-.03-.98-.03v18.77c.33,0,.65.02.98.02,34.78,0,58.67-19.66,58.67-58.97v-190.24h0Z"/></g><g id="uuid-cbbd85e2-4e6b-4d0e-b3ce-3c474c14042a"><path class="uuid-f8b82c2e-cce3-4049-9984-b36eb0b9ff6e" d="M20.52,1022.03v-52.92H.26v190.24c0,39.31,23.89,58.97,58.67,58.97.33,0,.65-.01.98-.02v-18.77c-.33,0-.65.03-.98.03-23.29,0-38.41-13-38.41-40.22v-118.87h495.11v-18.45H20.52Z"/><path class="uuid-f8b82c2e-cce3-4049-9984-b36eb0b9ff6e" d="M574.05,810.92v189.24c0,18.77-5.38,33.4-15.98,43.5-9.93,9.46-24.34,14.46-41.67,14.47v-16.75c25.03,0,39.39-15.03,39.39-41.22v-119.87H60.68v-16.45h495.11v-52.92h18.26M575.05,809.92h-20.26v52.92H59.68v18.45h495.11v118.87c0,27.22-15.12,40.22-38.41,40.22-.33,0-.65-.03-.98-.03v18.77c.33,0,.65.02.98.02,34.78,0,58.67-19.66,58.67-58.97v-190.24h0Z"/></g><g id="uuid-2ad849a2-0707-464e-9c1b-c72f7af63a51"><path class="uuid-f8b82c2e-cce3-4049-9984-b36eb0b9ff6e" d="M435.84,1022.03v-52.92h-20.26v190.24c0,39.31,23.89,58.97,58.67,58.97.33,0,.65-.01.98-.02v-18.77c-.33,0-.65.03-.98.03-23.29,0-38.41-13-38.41-40.22v-118.87h495.11v-18.45h-495.11Z"/><path class="uuid-f8b82c2e-cce3-4049-9984-b36eb0b9ff6e" d="M989.36,810.92v189.24c0,18.77-5.38,33.4-15.98,43.5-9.93,9.46-24.34,14.46-41.67,14.47v-16.75c25.03,0,39.39-15.03,39.39-41.22v-119.87h-495.11v-16.45h495.11v-52.92h18.26M990.36,809.92h-20.26v52.92h-495.11v18.45h495.11v118.87c0,27.22-15.12,40.22-38.41,40.22-.33,0-.65-.03-.98-.03v18.77c.33,0,.65.02.98.02,34.78,0,58.67-19.66,58.67-58.97v-190.24h0Z"/></g><g id="uuid-1a0c7163-469b-4915-8e58-493e3467a581"><path class="uuid-f8b82c2e-cce3-4049-9984-b36eb0b9ff6e" d="M851.15,1022.03v-52.92h-20.26v190.24c0,39.31,23.89,58.97,58.67,58.97.33,0,.65-.01.98-.02v-18.77c-.33,0-.65.03-.98.03-23.29,0-38.41-13-38.41-40.22v-118.87h495.11v-18.45h-495.11Z"/><path class="uuid-f8b82c2e-cce3-4049-9984-b36eb0b9ff6e" d="M1404.67,810.92v189.24c0,18.77-5.38,33.4-15.98,43.5-9.93,9.46-24.34,14.46-41.67,14.47v-16.75c25.03,0,39.39-15.03,39.39-41.22v-119.87h-495.11v-16.45h495.11v-52.92h18.26M1405.67,809.92h-20.26v52.92h-495.11v18.45h495.11v118.87c0,27.22-15.12,40.22-38.41,40.22-.33,0-.65-.03-.98-.03v18.77c.33,0,.65.02.98.02,34.78,0,58.67-19.66,58.67-58.97v-190.24h0Z"/></g><g id="uuid-2779fecc-fcec-41eb-9b6b-78b4a5f930fd"><path class="uuid-f8b82c2e-cce3-4049-9984-b36eb0b9ff6e" d="M1266.46,1022.03v-52.92h-20.26v190.24c0,39.31,23.89,58.97,58.67,58.97.33,0,.65-.01.98-.02v-18.77c-.33,0-.65.03-.98.03-23.29,0-38.41-13-38.41-40.22v-118.87h495.11v-18.45h-495.11Z"/><path class="uuid-f8b82c2e-cce3-4049-9984-b36eb0b9ff6e" d="M1819.99,810.92v189.24c0,18.77-5.38,33.4-15.98,43.5-9.93,9.46-24.34,14.46-41.67,14.47v-16.75c25.03,0,39.39-15.03,39.39-41.22v-119.87h-495.11v-16.45h495.11v-52.92h18.26M1820.99,809.92h-20.26v52.92h-495.11v18.45h495.11v118.87c0,27.22-15.12,40.22-38.41,40.22-.33,0-.65-.03-.98-.03v18.77c.33,0,.65.02.98.02,34.78,0,58.67-19.66,58.67-58.97v-190.24h0Z"/></g><g id="uuid-76caff91-f66b-4186-8ec6-0fe238d26a03"><path class="uuid-f8b82c2e-cce3-4049-9984-b36eb0b9ff6e" d="M1681.77,1022.03v-52.92h-20.26v190.24c0,39.31,23.89,58.97,58.67,58.97.33,0,.65-.01.98-.02v-18.77c-.33,0-.65.03-.98.03-23.29,0-38.41-13-38.41-40.22v-118.87h495.11v-18.45h-495.11Z"/><path class="uuid-f8b82c2e-cce3-4049-9984-b36eb0b9ff6e" d="M2235.3,810.92v189.24c0,18.77-5.38,33.4-15.98,43.5-9.93,9.46-24.34,14.46-41.67,14.47v-16.75c25.03,0,39.39-15.03,39.39-41.22v-119.87h-495.11v-16.45h495.11v-52.92h18.26M2236.3,809.92h-20.26v52.92h-495.11v18.45h495.11v118.87c0,27.22-15.12,40.22-38.41,40.22-.33,0-.65-.03-.98-.03v18.77c.33,0,.65.02.98.02,34.78,0,58.67-19.66,58.67-58.97v-190.24h0Z"/></g><g id="uuid-ad74b3a7-d917-48da-b9a8-41ac52781e22"><path class="uuid-f8b82c2e-cce3-4049-9984-b36eb0b9ff6e" d="M2097.09,1022.03v-52.92h-20.26v190.24c0,39.31,23.89,58.97,58.67,58.97.33,0,.65-.01.98-.02v-18.77c-.33,0-.65.03-.98.03-23.29,0-38.41-13-38.41-40.22v-118.87h495.11v-18.45h-495.11Z"/><path class="uuid-f8b82c2e-cce3-4049-9984-b36eb0b9ff6e" d="M2650.61,810.92v189.24c0,18.77-5.38,33.4-15.98,43.5-9.93,9.46-24.34,14.46-41.67,14.47v-16.75c25.03,0,39.39-15.03,39.39-41.22v-119.87h-495.11v-16.45h495.11v-52.92h18.26M2651.61,809.92h-20.26v52.92h-495.11v18.45h495.11v118.87c0,27.22-15.12,40.22-38.41,40.22-.33,0-.65-.03-.98-.03v18.77c.33,0,.65.02.98.02,34.78,0,58.67-19.66,58.67-58.97v-190.24h0Z"/></g></g></g></svg>