<?xml version="1.0" encoding="UTF-8"?><svg id="uuid-b2c792fe-b88c-45bb-b749-e54bb587a71c" xmlns="http://www.w3.org/2000/svg" viewBox="0 0 2377 200.93"><defs><style>.uuid-bf956f27-51fa-462b-815f-83bc57c68cfa{fill:#f5f3eb;}</style></defs><g id="uuid-d1131a65-e226-48ab-843d-06135f67aa92"><polygon class="uuid-bf956f27-51fa-462b-815f-83bc57c68cfa" points="2377 0 1954.81 0 0 0 0 31.22 1954.81 31.22 2377 31.22 2377 0"/><polygon class="uuid-bf956f27-51fa-462b-815f-83bc57c68cfa" points="2377 44.42 1954.81 44.42 0 44.42 0 75.69 1954.81 75.69 2377 75.69 2377 44.42"/><polygon class="uuid-bf956f27-51fa-462b-815f-83bc57c68cfa" points="2377 86.54 1954.81 86.54 0 86.54 0 116.57 1954.81 116.57 2377 116.57 2377 86.54"/><polygon class="uuid-bf956f27-51fa-462b-815f-83bc57c68cfa" points="2377 130.34 1954.81 130.34 0 130.34 0 157.14 1954.81 157.14 2377 157.14 2377 130.34"/><path class="uuid-bf956f27-51fa-462b-815f-83bc57c68cfa" d="M2377,161.14c-6.4-.04-13.01-.06-19.85-.06-101.07,0-152.45,4.52-202.14,8.9-49.21,4.33-100.1,8.81-200.19,8.81-143.43,0-216.34-4.49-286.86-8.84-70.85-4.36-144.11-8.88-288.21-8.88s-217.37,4.52-288.21,8.88c-70.51,4.34-143.43,8.84-286.85,8.84-100.1,0-150.98-4.48-200.19-8.81-49.69-4.38-101.07-8.9-202.14-8.9s-152.45,4.52-202.14,8.9c-49.21,4.33-100.1,8.81-200.19,8.81v22.14c101.07,0,152.45-4.52,202.14-8.9,49.21-4.33,100.1-8.81,200.19-8.81s150.98,4.48,200.19,8.81c49.69,4.38,101.07,8.9,202.14,8.9,144.11,0,217.36-4.52,288.21-8.88,70.51-4.34,143.43-8.84,286.86-8.84s216.34,4.49,286.86,8.84c70.85,4.36,144.11,8.88,288.21,8.88,101.07,0,152.45-4.52,202.14-8.9,49.21-4.33,100.1-8.81,200.19-8.81,6.85,0,13.45.02,19.85.06v-22.15Z"/></g></svg>