<?xml version="1.0" encoding="UTF-8"?><svg id="uuid-b34c82bd-5b4a-4d61-81ab-ab4faa0252dc" xmlns="http://www.w3.org/2000/svg" viewBox="0 0 2377 823.41"><defs><style>.uuid-926bb35e-04b6-4f48-a474-df4b23a90139{fill:#d3dce4;}</style></defs><g id="uuid-6babbf66-13d4-4873-855f-d5fc0ee7c4b7"><path class="uuid-926bb35e-04b6-4f48-a474-df4b23a90139" d="M2372.52,253.69v25.11c-53.53-2.95-86.37-10.95-118.42-18.79-40.37-9.84-78.47-19.16-156.9-19.16s-116.58,9.32-156.9,19.16c-40.05,9.79-81.37,19.89-162.9,19.89-8.63,0-16.79-.16-24.58-.37v.37c-81.48,0-122.84-10.11-162.85-19.89-40.37-9.84-78.53-19.16-156.95-19.16s-116.58,9.32-156.9,19.16c-40.06,9.79-81.42,19.89-162.9,19.89s-122.74-10.11-162.85-19.89c-40.37-9.84-78.48-19.16-156.9-19.16-37.69,0-66.05,2.16-89.84,5.53-25.74,3.53-46.16,8.53-67.11,13.63-40,9.79-81.37,19.89-162.85,19.89-1.63,0-3.26-.05-4.9-.05v.05c-81.48,0-122.85-10.11-162.85-19.89-40.37-9.84-78.53-19.16-156.95-19.16-73.32,0-111.37,8.16-149,17.26v-25.74c36.16-8.63,76.9-16.58,149-16.58,1.69,0,3.32.05,4.95.05v-.05c81.47,0,122.84,10.11,162.85,19.9,40.37,9.84,78.47,19.16,156.9,19.16s116.58-9.32,156.95-19.16c21.84-5.32,44.05-10.79,73-14.58,24.05-3.21,52.84-5.32,89.84-5.32,81.42,0,122.84,10.11,162.85,19.9,40.37,9.84,78.48,19.16,156.9,19.16s116.58-9.32,156.95-19.16c40.06-9.79,81.37-19.9,162.85-19.9,8.69,0,16.89.16,24.63.37v-.37c81.53,0,122.85,10.11,162.85,19.9,40.37,9.84,78.48,19.16,156.9,19.16s116.58-9.32,156.95-19.16c40-9.79,81.37-19.9,162.85-19.9s122.84,10.11,162.85,19.9c31.9,7.79,62.37,15.21,112.47,18Z"/><path class="uuid-926bb35e-04b6-4f48-a474-df4b23a90139" d="M2257.99,6.05c-39.53-3-80.37-6.05-160.79-6.05s-121.32,3.05-160.85,6.05c-39.06,2.9-79.48,5.95-158.95,5.95s-119.79-3.05-158.9-5.95c-39.58-3-80.42-6.05-160.85-6.05v.1c-7.74-.05-15.95-.1-24.63-.1-80.42,0-121.27,3.05-160.84,6.05-39.05,2.9-79.48,5.95-158.95,5.95s-119.84-3.05-158.95-5.95c-39.53-3-80.37-6.05-160.79-6.05-37.11,0-65.84.68-89.84,1.63-28.05,1.16-49.74,2.79-71,4.42-39.05,2.9-79.48,5.95-158.95,5.95s-119.85-3.05-158.95-5.95C275.22,3.05,234.37,0,153.95,0h-4.95C76.58,0,36.26,2.47,0,5.16v31.29c36.21-2.68,76.21-5.26,149-5.26,79.48,0,119.9,3.05,158.95,6,39.53,2.95,80.42,6.05,160.85,6.05v-.05c1.63,0,3.26.05,4.9.05,80.42,0,121.32-3.1,160.84-6.05,20.74-1.58,41.9-3.16,69.11-4.32,24-1.05,52.63-1.68,89.84-1.68,79.48,0,119.84,3.05,158.95,6,39.58,2.95,80.37,6.05,160.79,6.05s121.32-3.1,160.85-6.05c39.05-2.95,79.48-6,158.95-6s119.9,3.05,159,6c39.47,2.95,80.37,6.05,160.79,6.05v-.16c7.79.11,15.95.16,24.58.16,80.42,0,121.32-3.1,160.85-6.05,39.11-2.95,79.48-6,158.95-6s119.84,3.05,158.95,6c31.47,2.37,63.85,4.79,116.37,5.68V11.63c-51.63-.89-83.47-3.26-114.53-5.58Z"/><path class="uuid-926bb35e-04b6-4f48-a474-df4b23a90139" d="M2258.94,114.7c-39.74-5.95-80.85-12.16-161.74-12.16s-122,6.21-161.74,12.16c-40.63,6.11-78.95,11.89-158.05,11.89s-117.37-5.79-157.95-11.89c-39.79-5.95-80.9-12.16-161.79-12.16v.21c-7.74-.11-15.95-.21-24.63-.21-80.89,0-122,6.21-161.74,12.16-38.84,5.84-79.06,11.89-158.06,11.89s-119.16-6.05-158-11.89c-39.74-5.95-80.84-12.16-161.74-12.16-37.05,0-65.79,1.32-89.84,3.32-28.42,2.32-50.37,5.63-71.9,8.84-40.63,6.11-79.05,11.89-158.05,11.89s-117.37-5.79-158.01-11.89c-39.68-5.95-80.84-12.16-161.74-12.16v.05c-1.63,0-3.26-.05-4.95-.05-72.32,0-112.84,4.95-149,10.26v31.31c37.53-5.58,75.84-10.47,149-10.47,79,0,119.22,6.05,158.06,11.84,39.74,6,80.84,12.16,161.74,12.16h4.9c80.89,0,122.05-6.16,161.74-12.16,21.32-3.21,42-6.32,68.21-8.53,23.84-2.05,52.26-3.32,89.84-3.32,79,0,117.37,5.74,158,11.84,39.79,6,80.9,12.16,161.74,12.16s122-6.16,161.79-12.16c40.68-6.11,79-11.84,158-11.84s119.16,6.05,158.06,11.84c39.74,6,80.84,12.16,161.74,12.16v-.21c7.79.16,15.95.21,24.58.21,80.9,0,122-6.16,161.79-12.16,40.63-6.11,79-11.84,158-11.84s117.37,5.74,158,11.84c31.74,4.79,64.37,9.68,117.32,11.47v-31.1c-51.16-1.79-82.79-6.53-113.58-11.16Z"/><path class="uuid-926bb35e-04b6-4f48-a474-df4b23a90139" d="M2373.49,298.1c-.35-3.98,0-7.75,1.18-11.48-54.63,2.38-88.28,8.97-120.92,15.41-20.05,4-39.58,7.84-63.9,10.63-23.68,2.79-52,4.58-89.89,4.58-76.79,0-114.16-7.37-153.74-15.21-39.37-7.77-80.08-15.77-157.58-16.32-.19,0-.38,0-.57,0-2.61-.02-5.15-.05-7.85-.05-.42,0-.8,0-1.22,0-.52,0-1.02,0-1.54,0-8.69,0-16.79.11-24.63.32v-.32c-83.11,0-125.21,8.32-166,16.37-39.53,7.84-77,15.21-153.79,15.21s-114.16-7.37-153.74-15.21c-40.79-8.05-82.9-16.37-166-16.37s-125.21,8.32-166,16.37c-39.58,7.84-76.95,15.21-153.74,15.21-37.89,0-66.21-1.79-89.89-4.58-24.32-2.79-43.84-6.63-63.9-10.63-40.79-8.05-82.95-16.37-166-16.37-1.68,0-3.32.05-4.95.05v-.05c-83.11,0-125.21,8.32-166,16.37-39.58,7.84-76.95,15.21-153.79,15.21s-111.11-6.79-149-14.26v21.47c36.11,6.84,77.32,13.05,149,13.05h4.95c41.58,0,72.84-2.1,98.84-5.16,26.05-3.1,46.74-7.16,67.16-11.21,39.58-7.84,76.95-15.21,153.79-15.21s114.16,7.37,153.79,15.21c22.69,4.47,45.79,9.05,76.11,12.21,24.21,2.53,53.05,4.16,89.89,4.16,83.06,0,125.21-8.32,165.95-16.37,39.58-7.84,77.05-15.21,153.79-15.21s114.27,7.37,153.79,15.21c40.74,8.05,82.9,16.37,165.95,16.37,8.69,0,16.79-.11,24.63-.26v.26c83.11,0,125.21-8.32,166-16.37,38.79-7.69,75.61-14.9,149.35-15.18v.02c1.99-.01,3.97-.03,5.99-.04,26.98.04,49.08.99,68.1,2.55,0-.07.01-.14,0-.21,35.82,2.79,60.95,7.72,86.91,12.86,40.74,8.05,82.9,16.37,165.95,16.37,36.84,0,65.68-1.63,89.89-4.16,30.32-3.16,53.42-7.74,76.11-12.21,30.73-6.08,60.15-11.87,107.6-14.17-.22-3.66.11-7.33-.36-10.97.1.7.19,1.41.29,2.11Z"/><path class="uuid-926bb35e-04b6-4f48-a474-df4b23a90139" d="M2255.2,56.05c-40.63,3.05-79.05,5.9-158,5.9s-117.37-2.84-158-5.9c-39.74-3-80.9-6.11-161.79-6.11-8.63,0-16.79.05-24.58.11v-.11c-80.9,0-122.05,3.11-161.79,6.11-40.63,3.05-79,5.9-158.01,5.9s-117.32-2.84-158-5.9c-39.74-3-80.9-6.11-161.79-6.11s-122,3.11-161.79,6.11c-40.63,3.05-79,5.9-157.95,5.9-37.58,0-66-.68-89.84-1.63-26.21-1.11-46.9-2.69-68.16-4.26-39.74-3-80.9-6.11-161.79-6.11h-4.9c-40.42,0-70.95.79-96.32,1.95-25.37,1.11-45.58,2.68-65.47,4.16-40.63,3.05-79,5.9-158,5.9-73.16,0-111.47-2.42-149-5.21v32.88c36.21,2.63,76.74,5.1,149,5.1h4.95c40.47,0,70.95-.79,96.32-1.89,25.37-1.16,45.58-2.69,65.47-4.16,40.63-3.05,79-5.95,157.95-5.95s117.37,2.89,158,5.95c21.53,1.58,43.48,3.26,71.95,4.42,24.05.95,52.79,1.63,89.84,1.63,80.9,0,122-3.1,161.79-6.05,40.58-3.05,78.95-5.95,157.95-5.95s117.37,2.89,158,5.95c39.79,2.95,80.9,6.05,161.79,6.05,8.69,0,16.89-.05,24.63-.11v.11c80.9,0,122-3.1,161.79-6.05,40.63-3.05,79-5.95,157.95-5.95s117.37,2.89,158.05,5.95c39.69,2.95,80.85,6.05,161.74,6.05s122-3.1,161.79-6.05c32.16-2.42,62.9-4.74,113.53-5.58v-32.77c-53,.89-85.63,3.37-117.32,5.74Z"/><path class="uuid-926bb35e-04b6-4f48-a474-df4b23a90139" d="M2253.2,176.72c-40.11,4.9-78,9.48-155.9,9.48s-115.95-4.58-156.06-9.48c-40.21-4.9-81.9-9.95-163.79-9.95-8.69,0-16.84.05-24.63.16v-.16c-81.85,0-123.53,5.05-163.79,9.95-40.1,4.9-78,9.48-156,9.48s-115.84-4.58-155.95-9.48c-40.26-4.9-81.9-9.95-163.79-9.95s-123.53,5.05-163.79,9.95c-40.11,4.9-78,9.48-155.95,9.48-37.79,0-66.1-1.11-89.89-2.74-25.32-1.79-45.42-4.21-66.11-6.74-40.27-4.9-81.9-9.95-163.79-9.95h-4.95c-40.95,0-71.84,1.26-97.53,3.16-25.63,1.84-46.16,4.32-66.27,6.79-40.11,4.9-78,9.48-156,9.48-73.48,0-111.37-4.05-149-8.63v23.89c36.11,4.26,77,8.16,149,8.16h4.95c40.95,0,71.84-1.26,97.53-3.16,25.63-1.84,46.16-4.32,66.26-6.79,40.11-4.9,78-9.48,156-9.48s115.84,4.58,156,9.48c22.05,2.68,44.53,5.42,73.9,7.31,24.16,1.58,52.89,2.63,89.89,2.63,81.9,0,123.48-5.05,163.74-9.95,40.11-4.9,78.05-9.48,156-9.48s115.85,4.58,156,9.48c40.21,4.89,81.85,9.95,163.74,9.95,8.69,0,16.89-.05,24.63-.16v.16c81.9,0,123.53-5.05,163.79-9.95,40.11-4.9,78-9.48,156-9.48s115.89,4.58,156,9.48c40.27,4.89,81.85,9.95,163.84,9.95s123.48-5.05,163.69-9.95c31.68-3.84,61.95-7.53,111.53-8.9v-23.41c-53.95,1.42-87.05,5.47-119.32,9.37Z"/><path class="uuid-926bb35e-04b6-4f48-a474-df4b23a90139" d="M2377,803.09v20.21c-4.63.05-9.42.11-14.37.11-83.05,0-125.21-8.32-166-16.37-39.58-7.79-76.95-15.21-153.79-15.21s-114.16,7.42-153.79,15.21c-20.37,4.05-41.11,8.11-67.11,11.21-25.95,3.05-57.32,5.16-98.84,5.16h-1.95c-83.06,0-125.16-8.32-165.95-16.37-39.63-7.79-77-15.21-153.79-15.21s-114.21,7.42-153.79,15.21c-40.74,8.05-82.9,16.37-166,16.37s-125.21-8.32-166-16.37c-39.32-7.79-76.53-15.11-152.32-15.21-23.05.05-42.58.74-59.63,1.89-39.06,2.69-65.37,7.89-92.74,13.32-40.74,8.05-82.9,16.37-166,16.37h-2.84c-81.16-.21-122.84-8.42-163.11-16.37-39.58-7.79-77-15.21-153.79-15.21-58.42,0-94.06,4.26-125.16,9.74v-21.16c31.05-5,68.63-8.84,125.16-8.84,83.11,0,125.21,8.37,166,16.42,39.32,7.74,76.53,15.11,152.32,15.16,75.79-.05,113-7.42,152.37-15.16,29.95-5.9,60.63-12,107.79-14.84,17-1,36.16-1.58,58.16-1.58.53,0,.95.05,1.47.05.48,0,.9-.05,1.42-.05v.05c81.16.16,122.84,8.37,163.11,16.37,39.58,7.79,77,15.21,153.79,15.21s114.21-7.42,153.84-15.21c40.69-8.05,82.9-16.42,165.95-16.42s125.21,8.37,165.95,16.42c39.58,7.79,77,15.21,153.79,15.21s114.21-7.42,153.79-15.21c40.79-8.05,82.9-16.42,166-16.42v.05c.63,0,1.26-.05,1.9-.05,83.11,0,125.32,8.37,166,16.42,39.58,7.79,77,15.21,153.79,15.21,4.95,0,9.74-.05,14.37-.11Z"/></g></svg>