<?xml version="1.0" encoding="UTF-8"?><svg id="Capa_2" xmlns="http://www.w3.org/2000/svg" viewBox="0 0 347.592 109.3451"><g id="Components"><g id="_370dbdf7-2728-450f-b631-094a0180ef91_1"><path d="M0,83.2055h9.4219c.3965,11.0127,8.4922,17.3818,22.291,17.3818s22.293-6.7666,22.293-17.3818c0-11.4121-11.0137-13.4023-22.8242-15.127-14.0645-1.9902-29.1914-4.6445-29.1914-23.0879,0-15.3926,11.9434-25.875,29.8555-25.875,17.5156,0,29.1914,9.9517,29.7227,25.0781h-9.1563c-.5293-9.9517-8.0937-16.3208-20.5664-16.3208-12.6055,0-20.5664,6.6348-20.5664,16.8521,0,11.1455,10.8809,13.0039,22.6895,14.8613,14.0645,2.2559,29.3242,4.7764,29.3242,23.3535,0,16.1885-12.4727,26.4053-31.5801,26.4053-18.8418,0-31.3145-9.9521-31.7129-26.1396Z" style="fill:#231f20;"/><path d="M98.6779,74.8461c0-19.9043,14.5957-34.5,35.2949-34.5s35.0313,14.5957,35.0313,34.5v2.9189h-61.1699c1.1934,13.667,11.4102,23.3535,26.1387,23.3535,10.3496,0,18.3125-4.2461,22.5586-11.8096h9.6855c-5.043,12.0752-16.9844,20.0361-32.2441,20.0361-20.6992,0-35.2949-14.5957-35.2949-34.499ZM159.7151,69.8031c-2.123-13.2686-12.4727-21.2305-25.7422-21.2305-13.666,0-23.8828,8.3594-25.875,21.2305h51.6172Z" style="fill:#231f20;"/><path d="M175.1037,75.2436c0-20.4346,14.5957-34.8975,35.2949-34.8975s35.1641,14.1982,35.1641,34.8975v32.377h-8.2266v-16.1885c-4.6445,11.6768-15.5254,17.9131-28.2637,17.9131-18.4434,0-33.9688-13.1367-33.9688-34.1016ZM236.6721,74.8461c0-15.127-10.6152-26.2734-26.2734-26.2734s-26.2715,11.1465-26.2715,26.2734,10.6152,26.2725,26.2715,26.2725,26.2734-11.1465,26.2734-26.2725Z" style="fill:#231f20;"/><path d="M254.3147,74.5805c0-20.1689,14.7285-34.2344,33.9688-34.2344,12.4746,0,22.6914,5.8389,27.5996,15.79V13.4096h8.8906v61.0381c0,21.0977-14.7285,34.8975-35.0293,34.8975-20.832,0-35.4297-14.5957-35.4297-34.7646ZM315.883,74.8461c0-15.127-10.4824-26.2734-26.2715-26.2734-15.6582,0-26.2734,11.1465-26.2734,26.2734s10.6152,26.2725,26.2734,26.2725c15.7891,0,26.2715-11.1465,26.2715-26.2725Z" style="fill:#231f20;"/><path d="M338.7014,42.0707h8.8906v65.5498h-8.8906V42.0707Z" style="fill:#231f20;"/><path d="M81.998,23.2207V0h-8.8906v83.4701c0,17.25,10.4824,25.875,25.7422,25.875.145,0,.2866-.0062.4309-.0078v-8.2341c-.1453.0024-.2842.0153-.4309.0153-10.2168,0-16.8516-5.7061-16.8516-17.6484V31.3154h217.239v-8.0947H81.998Z" style="fill:#231f20;"/><rect x="338.7014" y="22.4287" width="8.8906" height="8.8906" style="fill:#231f20;"/></g></g></svg>